<?xml version="1.0" encoding="utf-8"?>
<!-- Generator: Adobe Illustrator 21.0.0, SVG Export Plug-In . SVG Version: 6.00 Build 0)  -->
<svg version="1.1" id="Capa_1" xmlns="http://www.w3.org/2000/svg" xmlns:xlink="http://www.w3.org/1999/xlink" x="0px" y="0px"
	 viewBox="0 0 125 110.4" style="enable-background:new 0 0 125 110.4;" xml:space="preserve">
<path d="M106.1,10.2H46.5V32h-9.1v18.2h9.1v50.8h59.7c6,0,10.9-4.9,10.9-10.9v-69C117,15.1,112.1,10.2,106.1,10.2L106.1,10.2z
	 M92.2,74.1L92.2,74.1c0,4.2-4.9,7.6-10.9,7.6c-6,0-10.9-3.4-10.9-7.6c0-0.8,6-24.8,6-24.8c-3.3-1.8-5.7-5.2-5.7-9.3
	c0-5.8,4.7-10.5,10.5-10.5c5.8,0,10.5,4.7,10.5,10.5c0,4-2.3,7.5-5.6,9.3c0,0,5.9,23.9,6,24.6L92.2,74.1L92.2,74.1z M92.2,74.1"/>
</svg>
