<?xml version="1.0" standalone="no"?>
<!DOCTYPE svg PUBLIC "-//W3C//DTD SVG 1.1//EN" "http://www.w3.org/Graphics/SVG/1.1/DTD/svg11.dtd" >
<svg xmlns="http://www.w3.org/2000/svg" xmlns:xlink="http://www.w3.org/1999/xlink" version="1.1">
<metadata></metadata>
<defs>
<font id="mullerbolduploaded_file" horiz-adv-x="1304" >
<font-face units-per-em="2048" ascent="1550" descent="-498" />
<missing-glyph horiz-adv-x="490" />
<glyph horiz-adv-x="0" />
<glyph unicode="&#xd;" horiz-adv-x="735" />
<glyph unicode=" "  horiz-adv-x="490" />
<glyph unicode="&#x09;" horiz-adv-x="490" />
<glyph unicode="&#xa0;" horiz-adv-x="490" />
<glyph unicode="!" horiz-adv-x="596" d="M112 152q0 87 54.5 133.5t131.5 46.5q80 0 133.5 -46.5t53.5 -133.5q0 -90 -53.5 -135.5t-133 -45.5t-133 46.5t-53.5 134.5zM137 1549h323l-19 -1018h-284z" />
<glyph unicode="&#x22;" horiz-adv-x="888" d="M114 1064v485h275l-57 -485h-218zM531 1064v485h274l-58 -485h-216z" />
<glyph unicode="#" horiz-adv-x="1518" d="M76 334v225h203l93 388h-186v225h238l80 335h292l-79 -335h285l79 335h293l-80 -335h148v-225h-201l-93 -388h184v-225h-237l-78 -334h-291l76 334h-285l-76 -334h-293l78 334h-150zM570 559h286l93 388h-286z" />
<glyph unicode="$" horiz-adv-x="1338" d="M93 108v316q247 -164 555 -163q141 0 211 34t70 114q0 58 -45.5 100t-118.5 67.5t-161.5 50.5t-177 59.5t-161.5 82t-118 131.5t-45 195q0 188 119 297.5t317 135.5v264h241v-266q234 -22 391 -110v-310q-197 141 -478 137q-251 -4 -251 -144q0 -52 45 -91t119 -63.5 t162.5 -48.5t175.5 -60t161.5 -83.5t120 -131t45.5 -197.5q0 -217 -134 -325t-357 -126v-260h-241v262q-255 25 -445 133z" />
<glyph unicode="%" horiz-adv-x="2036" d="M64 1199q0 179 116 279.5t287 100.5q168 0 283 -100.5t115 -279.5t-115 -279.5t-283 -100.5q-171 0 -287 100.5t-116 279.5zM312 1199q0 -64 38.5 -108t116.5 -44q73 0 111.5 44t38.5 108t-38.5 108t-111.5 44q-78 0 -116.5 -44t-38.5 -108zM460 -133l905 1813h220 l-904 -1813h-221zM1172 349.5q0 178.5 116 279.5t287 101q168 0 283 -101t115 -279.5t-115 -279.5t-283 -101q-171 0 -287 101t-116 279.5zM1420 349.5q0 -64.5 38.5 -108.5t116.5 -44q73 0 111.5 44t38.5 108.5t-38.5 108.5t-111.5 44q-78 0 -116.5 -44t-38.5 -108.5z" />
<glyph unicode="&#x26;" horiz-adv-x="1602" d="M91 382q0 250 308 423q-173 185 -173 352q0 183 146.5 302.5t372.5 119.5q201 0 334 -108t133 -279q0 -148 -105 -250t-280 -188l283 -274q76 132 74 276h302q1 -254 -172 -471l296 -285h-352l-125 118q-213 -148 -502 -149q-243 0 -391.5 115t-148.5 298zM407 411 q0 -86 69.5 -134.5t196.5 -48.5q146 0 262 73l-353 330q-175 -97 -175 -220zM519 1152q0 -97 129 -225q126 57 198 116t72 136q0 72 -46.5 112.5t-132.5 40.5q-100 0 -160 -53t-60 -127z" />
<glyph unicode="'" horiz-adv-x="473" d="M114 1064v485h275l-57 -485h-218z" />
<glyph unicode="(" horiz-adv-x="696" d="M80 774.5q0 263.5 89.5 533t241.5 484.5h248q-124 -215 -194.5 -483.5t-70.5 -534t71 -534.5t194 -483h-248q-152 215 -241.5 484.5t-89.5 533z" />
<glyph unicode=")" horiz-adv-x="696" d="M38 -243q124 215 194.5 483.5t70.5 534t-70.5 534t-194.5 483.5h247q152 -215 242 -484.5t90 -533t-89.5 -533.5t-242.5 -484h-247z" />
<glyph unicode="*" horiz-adv-x="1061" d="M73 1131l98 269l251 -126l-35 275h288l-36 -275l252 126l97 -269l-273 -56l194 -199l-234 -164l-144 272l-144 -272l-235 164l196 199z" />
<glyph unicode="+" horiz-adv-x="1193" d="M80 644v261h387v387h261v-387h387v-261h-387v-387h-261v387h-387z" />
<glyph unicode="," horiz-adv-x="578" d="M13 -321l139 595h325l-216 -595h-248z" />
<glyph unicode="-" horiz-adv-x="1065" d="M122 409v258h822v-258h-822z" />
<glyph unicode="." horiz-adv-x="549" d="M89 152.5q0 88.5 54 135t133.5 46.5t132.5 -46.5t53 -135t-53 -135t-132.5 -46.5t-133.5 46.5t-54 135z" />
<glyph unicode="/" horiz-adv-x="996" d="M51 -131l677 1809h219l-677 -1809h-219z" />
<glyph unicode="0" horiz-adv-x="1560" d="M95 752q0 347 171.5 565t514 218t514.5 -218t172 -565t-172 -565t-514.5 -218t-514 218t-171.5 565zM427 752q0 -491 354 -491t354 491t-354 491t-354 -491z" />
<glyph unicode="1" horiz-adv-x="1019" d="M112 0v285h284v887l-284 -106v299l365 139h242v-1219h252v-285h-859z" />
<glyph unicode="2" horiz-adv-x="1317" d="M89 0v148q0 287 251 481q62 48 244 154q13 9 56.5 32t56.5 32t46.5 29.5t46 33t34 35t30.5 40t15.5 42t6.5 50.5q0 82 -66.5 125t-183.5 43q-251 0 -487 -179v310q224 159 518 159q240 0 394 -113t154 -331q0 -171 -109.5 -291.5t-297.5 -231.5q-221 -131 -272 -177 q-59 -57 -62 -108l752 2v-285h-1127z" />
<glyph unicode="3" horiz-adv-x="1317" d="M104 71v307q217 -122 495 -117q140 0 226.5 49t86.5 148q0 175 -262 175h-247l2 283l207 -2q113 0 176 41t63 117q0 83 -70.5 128t-205.5 45q-224 0 -444 -135v308q217 118 490 117q243 0 393.5 -108.5t150.5 -307.5q0 -115 -60.5 -200t-167.5 -123q127 -38 209 -134 t82 -251q0 -114 -50 -201.5t-136 -139t-191.5 -76.5t-224.5 -25q-276 0 -522 102z" />
<glyph unicode="4" horiz-adv-x="1448" d="M49 274v275l776 955h330v-953h227v-277h-227v-274h-317v274h-789zM394 551h444v548z" />
<glyph unicode="5" horiz-adv-x="1302" d="M99 71v307q188 -120 447 -119q155 0 249 55t94 161q0 222 -367 222q-199 0 -378 -64l53 874h955v-287l-656 4l-21 -295q106 21 196 22q243 0 396 -117t153 -363q0 -247 -183 -374.5t-453 -127.5q-274 0 -485 102z" />
<glyph unicode="6" horiz-adv-x="1419" d="M95 752q0 198 58 352t157 246t225 138.5t275 46.5q215 0 414 -93v-292q-162 106 -370 106q-379 0 -430 -384q191 101 403 101q217 0 370.5 -128t153.5 -358q0 -245 -165.5 -381.5t-408.5 -136.5q-682 0 -682 783zM424 604q22 -199 104 -282t222 -83q119 0 194.5 57.5 t75.5 174.5q0 226 -294 226q-160 0 -302 -93z" />
<glyph unicode="7" horiz-adv-x="1251" d="M55 1220v287h1157v-239l-617 -1268h-358l595 1220h-777z" />
<glyph unicode="8" horiz-adv-x="1454" d="M91 418q0 112 64 213t170 165q-179 122 -179 323q0 168 146 292t434 124q272 0 426.5 -127t156.5 -298q2 -203 -190 -346q245 -122 246 -357q0 -183 -158 -310.5t-477 -127.5q-316 0 -477.5 130.5t-161.5 318.5zM422 458q2 -102 85.5 -165t246.5 -63q122 0 201.5 46.5 t79.5 122.5q0 37 -15.5 68t-35.5 50t-63 40t-70.5 31.5t-86.5 30.5q-32 11 -108 35.5t-116 39.5q-122 -101 -118 -236zM462 1117q0 -38 18 -70t38 -52t66.5 -41t73 -30.5t87.5 -30.5q25 -6 72.5 -20t67.5 -19q111 110 106 232q0 83 -72 135.5t-207 52.5q-115 0 -182.5 -45 t-67.5 -112z" />
<glyph unicode="9" horiz-adv-x="1419" d="M68 1017q0 246 166.5 382t409.5 136q681 0 681 -783q0 -199 -57.5 -353t-157 -245.5t-226 -138t-274.5 -46.5q-215 0 -413 93v292q162 -106 369 -107q378 0 430 386q-190 -102 -401 -102q-219 0 -373 128t-154 358zM401 1032q0 -225 293 -224q153 0 302 89 q-22 201 -104 284.5t-221 83.5q-120 0 -195 -57.5t-75 -175.5z" />
<glyph unicode=":" horiz-adv-x="621" d="M124 152.5q0 88.5 54 135t133.5 46.5t133 -46.5t53.5 -135t-53.5 -135t-133 -46.5t-133.5 46.5t-54 135zM124 825.5q0 88.5 54 135t133.5 46.5t133 -46.5t53.5 -135.5q0 -91 -53.5 -136t-133 -45t-133.5 46.5t-54 135z" />
<glyph unicode=";" horiz-adv-x="642" d="M44 -321l140 595h325l-217 -595h-248zM137 886.5q0 88.5 53 134t133 45.5q82 0 135 -45.5t53 -133.5q0 -91 -53 -137.5t-135 -46.5q-80 0 -133 47.5t-53 136z" />
<glyph unicode="&#x3c;" horiz-adv-x="1118" d="M86 621v306l881 320v-276l-613 -197l613 -196v-277z" />
<glyph unicode="=" horiz-adv-x="1277" d="M131 424v260h1017v-260h-1017zM131 865v258h1017v-258h-1017z" />
<glyph unicode="&#x3e;" horiz-adv-x="1118" d="M152 301v277l614 196l-614 197v276l880 -320v-306z" />
<glyph unicode="?" horiz-adv-x="1102" d="M78 1179v292q201 108 429 108q230 0 379 -95t149 -292q0 -84 -39.5 -167t-97.5 -148t-115 -126t-97 -124t-40 -118h-292q0 77 36.5 153.5t87 136.5t102 114t87.5 108t36 100q0 166 -252 166q-185 0 -373 -108zM314 152.5q0 88.5 54 135t134 46.5t133 -46.5t53 -135 t-53 -135t-133 -46.5t-134 46.5t-54 135z" />
<glyph unicode="@" horiz-adv-x="2317" d="M82 531q0 203 73 390t207 335t346 235.5t469 87.5q255 0 461.5 -89.5t331 -232t191 -307.5t66.5 -331q0 -301 -129 -453.5t-355 -152.5q-133 0 -230 60t-135 164q-97 -169 -312 -169q-192 0 -305 137t-113 321q0 188 112 324t310 136q197 0 302 -148v122h234v-546 q0 -173 152 -173q188 0 188 378q0 124 -48.5 246.5t-140.5 225.5t-243 167.5t-337 64.5q-373 0 -593.5 -232t-220.5 -560q0 -382 255.5 -586t644.5 -204q240 0 480 78v-254q-223 -80 -489 -80q-237 0 -446 67.5t-372.5 194.5t-258.5 330t-95 454zM914 526.5 q0 -99.5 58 -169.5t159 -70q78 0 135 44.5t81 109.5v171q-22 66 -79.5 110t-136.5 44q-100 0 -158.5 -70t-58.5 -169.5z" />
<glyph unicode="A" horiz-adv-x="1634" d="M6 0l633 1549h359l630 -1549h-343l-113 289h-708l-114 -289h-344zM568 564h500l-217 555q-22 61 -32 122q-14 -69 -36 -122z" />
<glyph unicode="B" horiz-adv-x="1516" d="M166 0v1549h676q255 0 395.5 -99t140.5 -293q0 -260 -234 -338q128 -38 212 -132t84 -254q0 -126 -55.5 -215t-149 -133.5t-192.5 -64.5t-211 -20h-666zM496 270h331q131 0 206 42t75 157q0 198 -263 198h-349v-397zM498 922h334q97 0 157 45.5t60 131.5q0 178 -235 178 h-316v-355z" />
<glyph unicode="C" horiz-adv-x="1446" d="M80 756q0 203 72 366t190 260.5t264 147t306 49.5q243 0 441 -99v-317q-156 122 -386 122q-226 0 -386.5 -134t-160.5 -395q0 -124 46.5 -219.5t125.5 -153.5t175 -87.5t200 -29.5q257 0 398 128v-326q-205 -99 -449 -99q-159 0 -305.5 48.5t-266.5 141.5t-192 248 t-72 349z" />
<glyph unicode="D" horiz-adv-x="1640" d="M166 0v1549h579q399 0 605.5 -212t206.5 -563.5t-206.5 -562.5t-605.5 -211h-579zM498 292h247q232 0 352.5 122t120.5 360.5t-120.5 360t-352.5 121.5h-247v-964z" />
<glyph unicode="E" horiz-adv-x="1366" d="M166 0v1549h1090v-293h-758v-329h692v-290h-692v-345h772v-292h-1104z" />
<glyph unicode="F" horiz-adv-x="1332" d="M166 0v1549h1092v-299h-760v-361h696v-298h-696v-591h-332z" />
<glyph unicode="G" horiz-adv-x="1551" d="M82 774q0 203 71 361.5t191 253.5t268.5 142.5t311.5 47.5q252 0 476 -99v-317q-182 120 -431 120q-230 0 -389.5 -127.5t-159.5 -381.5q0 -145 49.5 -251.5t132 -160.5t168.5 -78.5t181.5 -24.5t169.5 28v553h316v-767q-243 -103 -504 -104q-133 0 -255.5 29t-232 91.5 t-189 154.5t-127 228t-47.5 302z" />
<glyph unicode="H" horiz-adv-x="1689" d="M166 0v1549h332v-625h694v625h332v-1549h-332v624h-694v-624h-332z" />
<glyph unicode="I" horiz-adv-x="663" d="M166 0v1549h332v-1549h-332z" />
<glyph unicode="J" horiz-adv-x="1138" d="M31 51v310q137 -85 321 -85q301 0 300 228v746h-411v299h743v-1082q0 -257 -154.5 -376.5t-398.5 -119.5q-226 0 -400 80z" />
<glyph unicode="K" horiz-adv-x="1528" d="M166 0v1549h332v-616h249l392 616h370l-502 -755l530 -794h-367l-423 633h-249v-633h-332z" />
<glyph unicode="L" horiz-adv-x="1284" d="M166 0v1549h332v-1251h758v-298h-1090z" />
<glyph unicode="M" horiz-adv-x="2005" d="M166 0v1549h307l531 -806l529 806h307v-1549h-331v954l-410 -622h-192l-409 624v-956h-332z" />
<glyph unicode="N" horiz-adv-x="1689" d="M166 0v1549h311l722 -1011q-7 95 -7 212v799h332v-1549h-312l-721 1011q7 -95 7 -213v-798h-332z" />
<glyph unicode="O" horiz-adv-x="1804" d="M80 774q0 159 52 302.5t152 256.5t259.5 179.5t359 66.5t358.5 -66.5t259.5 -179.5t152.5 -256.5t52 -302.5t-52 -303t-152.5 -256.5t-259.5 -179t-358.5 -66.5t-359 66.5t-259.5 179t-152 256.5t-52 303zM418 773.5q0 -214.5 126.5 -356t358.5 -141.5q230 0 356 141.5 t126 356t-126 356.5t-356 142q-232 0 -358.5 -142t-126.5 -356.5z" />
<glyph unicode="P" horiz-adv-x="1472" d="M166 0v1549h584q667 0 668 -521q0 -519 -668 -519h-252v-509h-332zM498 800h268q313 0 313 228t-313 228h-268v-456z" />
<glyph unicode="Q" horiz-adv-x="1804" d="M80 774q0 159 52 302.5t152 256.5t259.5 179.5t359 66.5t358.5 -66.5t259.5 -179.5t152.5 -256.5t52 -302.5q0 -307 -178 -527l178 -176l-223 -202l-191 190q-177 -90 -408 -90q-199 0 -359 66.5t-260 179t-152 256.5t-52 303zM418 774q0 -215 126.5 -356.5t358.5 -141.5 q88 0 163 30l-186 185l213 210l212 -210q80 120 80 283q0 215 -126 359t-356 144q-232 0 -358.5 -143t-126.5 -360z" />
<glyph unicode="R" horiz-adv-x="1560" d="M166 0v1549h636q122 0 225.5 -24.5t195 -80t143.5 -157t52 -243.5q0 -352 -339 -460l462 -584h-382l-418 542h-243v-542h-332zM498 819h321q112 0 186 54t74 165q0 112 -73 165t-187 53h-321v-437z" />
<glyph unicode="S" horiz-adv-x="1340" d="M97 1139q0 215 161.5 327.5t404.5 112.5q292 0 502 -119v-310q-189 137 -458 137h-19q-252 -4 -253 -143q0 -62 63.5 -109t157.5 -74.5t203.5 -70.5t203.5 -93t157 -147t63 -226q0 -126 -47.5 -216t-134 -141.5t-190 -74.5t-232.5 -23q-323 0 -573 139v316 q246 -163 544 -163h4q290 0 290 148q0 66 -62.5 116t-156.5 80t-204 73t-203.5 93t-157 145t-63.5 223z" />
<glyph unicode="T" horiz-adv-x="1338" d="M29 1250v299h1280v-299h-475v-1250h-330v1250h-475z" />
<glyph unicode="U" horiz-adv-x="1658" d="M150 582v967h332v-950q0 -331 347 -331q350 0 350 331v950h330v-967q0 -133 -38 -239t-102 -175t-152.5 -115.5t-185 -65t-202 -18.5t-202 18.5t-185 65t-152.5 115.5t-102 175t-38 239z" />
<glyph unicode="V" horiz-adv-x="1572" d="M13 1549h359l413 -1160l416 1160h359l-604 -1549h-341z" />
<glyph unicode="W" horiz-adv-x="2334" d="M22 1549h358l308 -1171l334 1171h292l334 -1171l307 1171h358l-477 -1549h-361l-308 1055l-306 -1055h-361z" />
<glyph unicode="X" horiz-adv-x="1499" d="M-13 0l555 802l-523 747h388l343 -509l341 509h389l-522 -747l555 -802h-390l-373 564l-376 -564h-387z" />
<glyph unicode="Y" horiz-adv-x="1551" d="M6 1549h374l397 -695l395 695h375l-605 -1000v-549h-330v549z" />
<glyph unicode="Z" horiz-adv-x="1357" d="M71 0v239l748 1011h-715v299h1152v-240l-749 -1011h776v-298h-1212z" />
<glyph unicode="[" horiz-adv-x="731" d="M135 -243v2035h532v-277h-222v-1479h222v-279h-532z" />
<glyph unicode="\" horiz-adv-x="996" d="M51 1678h219l677 -1809h-219z" />
<glyph unicode="]" horiz-adv-x="731" d="M64 36h223v1479h-223v277h533v-2035h-533v279z" />
<glyph unicode="^" d="M71 783l446 766h270l447 -766h-329l-253 460l-251 -460h-330z" />
<glyph unicode="_" horiz-adv-x="1070" d="M0 -122h1070v-260h-1070v260z" />
<glyph unicode="`" horiz-adv-x="559" d="M2 2017h336l200 -327h-297z" />
<glyph unicode="a" horiz-adv-x="1226" d="M53 294q0 126 75 210.5t175 114t216 29.5q131 0 253 -29v38q0 82 -64 130.5t-186 48.5q-177 0 -376 -80v266q213 71 411 71q522 0 522 -481v-338q0 -71 76 -71q31 0 57 10v-202q-79 -30 -160 -30h-10q-168 0 -234 118q-166 -130 -384 -130q-156 0 -263.5 87.5 t-107.5 237.5zM367 319q0 -58 47.5 -94.5t119.5 -36.5q139 0 238 86v167q-101 23 -181 23q-95 0 -159.5 -35t-64.5 -110z" />
<glyph unicode="b" horiz-adv-x="1374" d="M131 0v1549h307v-600q127 144 349 144q241 0 379.5 -164.5t138.5 -397.5t-138.5 -397.5t-379.5 -164.5q-255 0 -384 185v-154h-272zM435 405q34 -76 108 -126.5t169 -50.5q128 0 203.5 87.5t75.5 215.5t-75.5 215.5t-203.5 87.5q-95 0 -169 -51t-108 -126v-252z" />
<glyph unicode="c" horiz-adv-x="1083" d="M71 515q0 146 52 261t138.5 182.5t190 102t219.5 34.5q183 0 327 -78v-270q-124 80 -283 80q-139 0 -235 -73t-96 -223q0 -143 95.5 -220t230.5 -77q170 0 299 78v-272q-167 -71 -359 -71q-239 0 -409 140t-170 406z" />
<glyph unicode="d" horiz-adv-x="1374" d="M71 531q0 233 139.5 397.5t380.5 164.5q219 0 349 -144v600h305v-1549h-270v154q-135 -185 -384 -185q-241 0 -380.5 164.5t-139.5 397.5zM384 531q0 -128 76 -215.5t203 -87.5q95 0 169.5 50.5t107.5 126.5v252q-34 75 -108 126t-169 51q-128 0 -203.5 -87.5 t-75.5 -215.5z" />
<glyph unicode="e" horiz-adv-x="1209" d="M71 531q0 144 51 255t133.5 175.5t174.5 98t187 33.5q158 0 275 -60t172 -154t76 -212q8 -46 8 -92q0 -72 -20 -144h-748q25 -110 128.5 -164t245.5 -54q175 0 321 63v-240q-157 -66 -389 -67q-266 0 -440.5 148.5t-174.5 413.5zM378 631h473q2 13 2 25q0 62 -44 126 q-53 78 -180 77q-102 0 -175.5 -61t-75.5 -167z" />
<glyph unicode="f" horiz-adv-x="891" d="M51 802v260h183v103q0 115 37 199t98.5 129.5t131 65.5t151.5 20q146 0 262 -44v-258q-78 44 -184 44q-190 0 -190 -169v-90h325v-260h-325v-802h-306v802h-183z" />
<glyph unicode="g" horiz-adv-x="1374" d="M71 531q0 233 139.5 397.5t380.5 164.5q249 0 384 -186v155h270v-1033q0 -146 -50.5 -255.5t-138 -170.5t-194 -90.5t-227.5 -29.5q-243 0 -449 99v270q186 -110 409 -111q345 0 345 274v97q-131 -143 -349 -143q-241 0 -380.5 164.5t-139.5 397.5zM384 531 q0 -128 76 -215.5t203 -87.5q95 0 169.5 48.5t107.5 122.5v258q-34 75 -108 126t-169 51q-128 0 -203.5 -87.5t-75.5 -215.5z" />
<glyph unicode="h" d="M131 0v1549h307v-585q138 129 318 129q203 0 317.5 -123t114.5 -313v-657h-308v617q0 103 -56 156.5t-149 53.5q-144 0 -237 -135v-692h-307z" />
<glyph unicode="i" horiz-adv-x="574" d="M106 1414q0 84 51 127.5t128.5 43.5t129.5 -43.5t52 -127.5q0 -87 -51 -131t-131 -44q-78 0 -128.5 44t-50.5 131zM133 0v1062h308v-1062h-308z" />
<glyph unicode="j" horiz-adv-x="572" d="M-122 -224q46 -21 111 -21q146 0 146 150v1157h306v-1212q0 -192 -105.5 -279.5t-267.5 -87.5q-114 0 -190 30v263zM106 1414q0 84 52.5 127.5t129.5 43.5t128 -43.5t51 -127.5q0 -87 -51 -131t-128 -44t-129.5 44t-52.5 131z" />
<glyph unicode="k" horiz-adv-x="1209" d="M131 0v1549h307v-884h128l270 397h346l-366 -524l396 -538h-345l-305 420h-124v-420h-307z" />
<glyph unicode="l" horiz-adv-x="576" d="M135 0v1615h308v-1615h-308z" />
<glyph unicode="m" horiz-adv-x="1935" d="M131 0v1062h272v-125q51 60 139.5 108t198.5 48q219 0 325 -158q162 157 354 158q203 0 299 -127.5t96 -292.5v-673h-304v652q0 82 -45.5 128.5t-120.5 46.5q-118 0 -210 -106q2 -15 2 -48v-673h-305v652q0 82 -45.5 128.5t-121.5 46.5q-130 0 -227 -128v-699h-307z" />
<glyph unicode="n" d="M131 0v1062h272v-135q143 166 353 166q203 0 317.5 -123t114.5 -313v-657h-308v617q0 103 -56 156.5t-149 53.5q-144 0 -237 -135v-692h-307z" />
<glyph unicode="o" horiz-adv-x="1313" d="M71 531q0 265 170 413.5t416 148.5q247 0 416.5 -148.5t169.5 -413.5t-169 -413.5t-417 -148.5q-246 0 -416 148.5t-170 413.5zM384 531q0 -126 72 -207t200.5 -81t201.5 81t73 207t-73 207t-201.5 81t-200.5 -81t-72 -207z" />
<glyph unicode="p" horiz-adv-x="1374" d="M131 -487v1549h272v-155q131 186 384 186q241 0 379.5 -164.5t138.5 -397.5t-138.5 -397.5t-379.5 -164.5q-219 0 -349 143v-599h-307zM435 405q34 -76 108 -126.5t169 -50.5q128 0 203.5 87.5t75.5 215.5t-75.5 215.5t-203.5 87.5q-95 0 -169 -51t-108 -126v-252z" />
<glyph unicode="q" horiz-adv-x="1374" d="M71 531q0 233 139.5 397.5t380.5 164.5q249 0 384 -186v155h270v-1549h-305v599q-131 -143 -349 -143q-241 0 -380.5 164.5t-139.5 397.5zM384 531q0 -128 76 -215.5t203 -87.5q95 0 169.5 50.5t107.5 126.5v252q-34 75 -108 126t-169 51q-128 0 -203.5 -87.5 t-75.5 -215.5z" />
<glyph unicode="r" horiz-adv-x="864" d="M131 0v1062h272v-159q59 93 172 143q90 40 199 40q28 0 58 -2v-299q-42 7 -83 7q-81 0 -153 -29q-109 -44 -158 -139v-624h-307z" />
<glyph unicode="s" horiz-adv-x="1054" d="M84 766q0 170 126 248.5t316 78.5q205 0 392 -91v-252q-68 46 -173.5 77.5t-198.5 31.5q-147 0 -147 -85q0 -48 61.5 -79.5t150 -54.5t176 -56t149.5 -106t62 -182q0 -120 -69.5 -194.5t-173 -103.5t-240.5 -29q-255 0 -422 99v255q173 -112 405 -112q186 0 186 78 q0 47 -62.5 78.5t-150 55.5t-175.5 58t-150 106.5t-62 178.5z" />
<glyph unicode="t" horiz-adv-x="924" d="M31 802v260h180v310l304 72v-382h336v-260h-336v-415q0 -159 171 -159q101 0 192 36v-249q-133 -46 -285 -46q-169 0 -275.5 86t-106.5 272v475h-180z" />
<glyph unicode="u" d="M118 405v657h306v-617q0 -104 53.5 -157.5t151.5 -53.5q141 0 238 135v693h307v-1062h-271v135q-144 -166 -354 -166q-209 0 -320 122t-111 314z" />
<glyph unicode="v" horiz-adv-x="1237" d="M19 1062h329l271 -737l272 737h327l-437 -1062h-323z" />
<glyph unicode="w" horiz-adv-x="1806" d="M27 1062h327l192 -728l212 728h293l209 -728l196 728h325l-341 -1062h-325l-210 692l-211 -692h-327z" />
<glyph unicode="x" horiz-adv-x="1171" d="M4 0l405 536l-384 526h347l217 -319l211 319h348l-382 -526l404 -536h-347l-234 325l-237 -325h-348z" />
<glyph unicode="y" horiz-adv-x="1245" d="M6 1062h326l310 -717l263 717h319l-472 -1191q-157 -386 -458 -386q-64 0 -165 24v254q73 -15 126 -15q168 0 252 233l2 4z" />
<glyph unicode="z" horiz-adv-x="1065" d="M68 0v199l498 609h-469v254h865v-199l-498 -606h534v-257h-930z" />
<glyph unicode="{" horiz-adv-x="789" d="M59 639v270q165 -4 165 148v423q0 190 128 276t353 36v-270q-95 15 -133 -29.5t-38 -147.5v-328q0 -112 -57 -175t-132 -68q75 -4 132 -67t57 -176v-328q0 -104 38 -147.5t133 -28.5v-270q-225 -51 -353 35t-128 276v423q0 153 -165 148z" />
<glyph unicode="|" horiz-adv-x="578" d="M135 -221v2013h310v-2013h-310z" />
<glyph unicode="}" horiz-adv-x="789" d="M84 27q95 -15 134 28.5t39 147.5v328q0 113 56 176t132 67q-76 5 -132 68t-56 175v328q0 103 -39 147.5t-134 29.5v270q226 50 354 -36t128 -276v-423q0 -152 164 -148v-270q-164 5 -164 -148v-423q0 -190 -128 -276t-354 -35v270z" />
<glyph unicode="~" horiz-adv-x="1328" d="M137 568q-19 171 61.5 261.5t212.5 90.5q98 0 256 -57.5t213 -57.5q78 0 67 96h260q20 -169 -59.5 -262t-220.5 -93q-87 0 -251.5 59.5t-213.5 57.5q-78 0 -63 -95h-262z" />
<glyph unicode="&#xa1;" horiz-adv-x="574" d="M102 911.5q0 88.5 53 135t132.5 46.5t132.5 -45.5t53 -135.5q0 -89 -53 -134.5t-132.5 -45.5t-132.5 45.5t-53 134zM126 -485l20 1019h283l20 -1019h-323z" />
<glyph unicode="&#xa2;" horiz-adv-x="1121" d="M76 515q0 262 150 407.5t371 168.5v236h213v-243q108 -19 192 -67v-270q-86 55 -192 72v-578q120 19 203 71v-272q-97 -42 -203 -57v-249h-213v237q-221 15 -371 155t-150 389zM389 531q0 -110 57.5 -181t150.5 -98v560q-208 -59 -208 -281z" />
<glyph unicode="&#xa3;" horiz-adv-x="1332" d="M84 0v270h57q72 0 112.5 53t40.5 135v159h-176v248h176v137q0 268 155 400.5t387 132.5q188 0 356 -81v-270q-124 97 -295 97q-128 0 -210.5 -71t-82.5 -214v-131h428v-248h-428v-159q0 -133 -76 -188h724v-270h-1168z" />
<glyph unicode="&#xa4;" horiz-adv-x="1258" d="M108 407l129 127q-69 101 -69 240q0 138 69 241l-129 129l151 152l140 -139q101 53 229 53t231 -53l139 139l152 -152l-130 -131q68 -104 69 -239q0 -139 -69 -238l130 -129l-152 -152l-137 136q-104 -53 -232.5 -53t-229.5 53l-138 -136zM431 774.5q0 -84.5 52.5 -139.5 t145 -55t144.5 55t52 139.5t-52 139.5t-144.5 55t-145 -55t-52.5 -139.5z" />
<glyph unicode="&#xa5;" horiz-adv-x="1578" d="M59 1504h357l371 -664l374 664h356l-445 -734h239v-213h-357v-114h357v-213h-357v-230h-330v230h-356v213h356v114h-356v213h236z" />
<glyph unicode="&#xa6;" horiz-adv-x="605" d="M148 -221v823h310v-823h-310zM148 969v823h310v-823h-310z" />
<glyph unicode="&#xa7;" horiz-adv-x="1154" d="M104 721q0 180 157 286q-135 90 -135 245q0 170 128 248.5t324 78.5q199 0 384 -91v-243q-71 42 -173.5 71t-189.5 29q-158 0 -158 -85q0 -27 16 -47.5t64.5 -41.5t73 -28.5t104.5 -30.5q4 -2 7.5 -2t7 -2t7.5 -2q157 -47 247.5 -118.5t90.5 -206.5q0 -169 -154 -279 q127 -96 127 -253q0 -119 -69.5 -193.5t-172 -104t-239.5 -29.5q-232 0 -401 100v246q171 -108 386 -109q93 0 138 16.5t45 65.5q0 61 -139 109q-27 9 -124 37q-78 24 -131 47.5t-108 61.5t-84 95t-29 130zM387 779q0 -49 40 -76.5t124 -58.5l126 -38q87 53 87 131 q0 46 -38 74.5t-109 57.5l-135 45q-95 -47 -95 -135z" />
<glyph unicode="&#xa8;" horiz-adv-x="764" d="M-17 1842q0 69 48.5 118t117 49t116 -49t47.5 -118t-47.5 -116.5t-116 -47.5t-117 47.5t-48.5 116.5zM456 1842q0 69 48.5 118t117 49t116 -49t47.5 -118t-47.5 -116.5t-116 -47.5t-117 47.5t-48.5 116.5z" />
<glyph unicode="&#xa9;" horiz-adv-x="1870" d="M89 774.5q0 192.5 72.5 349.5t193 254t270 149t311 52t310.5 -52t270 -149t194 -254t73 -349.5t-73 -349.5t-194 -254.5t-270 -149.5t-310.5 -52t-311 52t-270 149.5t-193 254.5t-72.5 349.5zM199 774.5q0 -329.5 220 -516.5t516.5 -187t516.5 187t220 516.5t-220 516 t-516.5 186.5t-516.5 -186.5t-220 -516zM504 756q0 232 142.5 351t344.5 119q167 0 288 -76v-196q-118 66 -244 66q-115 0 -196 -59.5t-81 -190.5q0 -128 79 -185t193 -57q127 0 249 67v-196q-144 -76 -315 -76q-84 0 -162 25.5t-147 76t-110 136t-41 195.5z" />
<glyph unicode="&#xab;" horiz-adv-x="1235" d="M64 502v57l286 401h309l-300 -429l300 -429h-309zM568 502v57l286 401h309l-300 -429l300 -429h-309z" />
<glyph unicode="&#xac;" horiz-adv-x="1275" d="M104 800v262h1035v-536h-263v274h-772z" />
<glyph unicode="&#xad;" horiz-adv-x="1065" d="M122 409v258h822v-258h-822z" />
<glyph unicode="&#xae;" horiz-adv-x="1855" d="M89 774q0 250 123.5 438t311.5 277.5t405 89.5q215 0 403 -89.5t311.5 -277.5t123.5 -438t-123.5 -438t-311.5 -277.5t-403 -89.5q-217 0 -405 89.5t-311.5 277.5t-123.5 438zM199 774.5q0 -331.5 215 -515t515 -183.5q192 0 354.5 75t269 237.5t106.5 386t-106.5 386 t-269 237.5t-354.5 75q-302 0 -516 -183.5t-214 -515zM584 352v864h418q140 0 242.5 -73t102.5 -223q0 -104 -51 -171.5t-133 -91.5l235 -305h-241l-213 283h-20h-128v-283h-212zM796 808h179q146 0 146 104q0 105 -146 105h-179v-209z" />
<glyph unicode="&#xaf;" horiz-adv-x="795" d="M38 1697v243h720v-243h-720z" />
<glyph unicode="&#xb0;" horiz-adv-x="919" d="M68 1210q0 170 114 269.5t278 99.5t276.5 -99.5t112.5 -269.5q0 -178 -111.5 -277t-277.5 -99t-279 99t-113 277zM296 1210q0 -76 45.5 -121t121 -45t118.5 44.5t43 121.5q0 73 -43 116t-118.5 43t-121 -43t-45.5 -116z" />
<glyph unicode="&#xb1;" horiz-adv-x="1273" d="M120 0v261h1035v-261h-1035zM120 785v262h387v386h261v-386h387v-262h-387v-386h-261v386h-387z" />
<glyph unicode="&#xb4;" horiz-adv-x="530" d="M19 1690l200 327h336l-239 -327h-297z" />
<glyph unicode="&#xb6;" horiz-adv-x="1616" d="M64 1070q0 224 136 351.5t372 127.5h882v-2036h-317v1737h-248v-1737h-317v1078q-236 0 -372 127t-136 352z" />
<glyph unicode="&#xb7;" horiz-adv-x="583" d="M104 529q0 88 54.5 134.5t134 46.5t132 -46.5t52.5 -135.5q0 -91 -52.5 -135.5t-132 -44.5t-134 46.5t-54.5 134.5z" />
<glyph unicode="&#xb8;" horiz-adv-x="490" d="M-13 -285q76 -44 177 -44q137 0 137 65q0 40 -61 55t-151 4l48 205h215l-29 -106q208 -19 208 -192q3 -108 -93 -163.5t-226 -55.5t-225 42v190z" />
<glyph unicode="&#xbb;" horiz-adv-x="1235" d="M73 102l301 429l-301 429h309l285 -401v-57l-285 -400h-309zM578 102l300 429l-300 429h309l285 -401v-57l-285 -400h-309z" />
<glyph unicode="&#xbc;" horiz-adv-x="2025" d="M102 602v185h196v503l-190 -62v192l244 84h155v-717h166v-185h-571zM422 -31l1013 1610h100l-1013 -1610h-100zM1155 159v179l457 565h215v-563h130v-181h-130v-159h-204v159h-468zM1380 340h243v299z" />
<glyph unicode="&#xbd;" horiz-adv-x="1944" d="M93 602v185h196v503l-190 -62v192l243 84h156v-717h165v-185h-570zM414 -31l1013 1610h99l-1013 -1610h-99zM1190 0v95q0 62 21 116.5t42 87.5t74 74t74 53t85 49q9 7 37 22.5t37.5 21t29.5 19t27.5 22t19 23t15 28t3.5 31.5q0 92 -140 92q-150 0 -297 -110v201 q140 97 317 97q148 0 240 -68.5t92 -203.5q0 -104 -65 -176.5t-177 -139.5q-57 -34 -77 -44.5t-55 -34t-48.5 -40t-13.5 -31.5l438 2v-186h-679z" />
<glyph unicode="&#xbe;" horiz-adv-x="2147" d="M93 654v200q131 -75 294 -71q181 0 181 106q0 95 -146 95h-150l2 183h125q135 0 135 87q0 93 -158 93q-139 0 -268 -84v199q135 74 297 73q146 0 237.5 -65t91.5 -185q0 -143 -126 -194q164 -55 164 -230q0 -135 -106.5 -201.5t-261.5 -66.5t-311 61zM551 -31l1013 1610 h99l-1013 -1610h-99zM1277 159v179l457 565h214v-563h131v-181h-131v-159h-203v159h-468zM1502 340h243v299z" />
<glyph unicode="&#xbf;" horiz-adv-x="1087" d="M59 -129q0 85 40 169t98 148t115 125t97 124t40 118h292q0 -95 -54 -189t-120.5 -158t-121 -137t-54.5 -128q0 -167 253 -167q185 0 373 110v-293q-205 -108 -428 -108q-230 0 -380 95t-150 291zM405 912q0 90 53 135.5t135 45.5q80 0 133 -46.5t53 -135t-53 -134 t-133 -45.5q-82 0 -135 45.5t-53 134.5z" />
<glyph unicode="&#xc0;" horiz-adv-x="1634" d="M6 0l633 1549h359l630 -1549h-343l-113 289h-708l-114 -289h-344zM473 2017h337l199 -327h-297zM568 564h500l-217 555q-22 61 -32 122q-14 -69 -36 -122z" />
<glyph unicode="&#xc1;" horiz-adv-x="1634" d="M6 0l633 1549h359l630 -1549h-343l-113 289h-708l-114 -289h-344zM568 564h500l-217 555q-22 61 -32 122q-14 -69 -36 -122zM621 1690l200 327h336l-239 -327h-297z" />
<glyph unicode="&#xc2;" horiz-adv-x="1634" d="M6 0l633 1549h359l630 -1549h-343l-113 289h-708l-114 -289h-344zM407 1674l274 343h273l274 -343h-293l-116 144l-118 -144h-294zM568 564h500l-217 555q-22 61 -32 122q-14 -69 -36 -122z" />
<glyph unicode="&#xc3;" horiz-adv-x="1634" d="M6 0l633 1549h359l630 -1549h-343l-113 289h-708l-114 -289h-344zM416 1663q-32 133 30.5 220.5t174.5 87.5q82 0 186.5 -46.5t129.5 -46.5q36 0 48.5 25.5t2.5 53.5h222q31 -133 -31 -220t-177 -87q-82 0 -186 46.5t-128 46.5q-36 0 -47.5 -25.5t-3.5 -54.5h-221z M568 564h500l-217 555q-22 61 -32 122q-14 -69 -36 -122z" />
<glyph unicode="&#xc4;" horiz-adv-x="1634" d="M6 0l633 1549h359l630 -1549h-343l-113 289h-708l-114 -289h-344zM414 1842q0 69 48.5 118t117 49t116 -49t47.5 -118t-47.5 -116.5t-116 -47.5t-117 47.5t-48.5 116.5zM568 564h500l-217 555q-22 61 -32 122q-14 -69 -36 -122zM887 1842q0 69 48.5 118t117 49t116 -49 t47.5 -118t-47.5 -116.5t-116 -47.5t-117 47.5t-48.5 116.5z" />
<glyph unicode="&#xc5;" horiz-adv-x="1634" d="M6 0l633 1549h359l630 -1549h-343l-113 289h-708l-114 -289h-344zM538 1885q0 119 80.5 190t195.5 71t196 -71t81 -190q0 -125 -80 -196.5t-197 -71.5q-114 0 -195 71.5t-81 196.5zM568 564h500l-217 555q-22 61 -32 122q-14 -69 -36 -122zM724 1882.5q0 -42.5 26.5 -69 t66 -26.5t66 26.5t26.5 69t-26.5 67.5t-66 25t-66 -25t-26.5 -67.5z" />
<glyph unicode="&#xc6;" horiz-adv-x="2237" d="M-36 0l1011 1549h1155v-293h-705v-329h639v-290h-639v-345h719v-292h-1051v298h-589l-194 -298h-346zM671 564h420v646z" />
<glyph unicode="&#xc7;" horiz-adv-x="1446" d="M80 756q0 203 72 366t190 260.5t264 147t306 49.5q243 0 441 -99v-317q-156 122 -386 122q-226 0 -386.5 -134t-160.5 -395q0 -124 46.5 -219.5t125.5 -153.5t175 -87.5t200 -29.5q257 0 398 128v-326q-148 -73 -330 -93l-22 -81q208 -19 207 -192q3 -108 -92.5 -163.5 t-225.5 -55.5t-225 42v190q76 -44 177 -44q137 0 137 65q0 40 -61 55t-151 4l42 178q-146 13 -276.5 68.5t-236 148.5t-167 240.5t-61.5 325.5z" />
<glyph unicode="&#xc8;" horiz-adv-x="1366" d="M166 0v1549h1090v-293h-758v-329h692v-290h-692v-345h772v-292h-1104zM389 2017h337l198 -327h-295z" />
<glyph unicode="&#xc9;" horiz-adv-x="1366" d="M166 0v1549h1090v-293h-758v-329h692v-290h-692v-345h772v-292h-1104zM538 1690l199 327h335l-238 -327h-296z" />
<glyph unicode="&#xca;" horiz-adv-x="1366" d="M166 0v1549h1090v-293h-758v-329h692v-290h-692v-345h772v-292h-1104zM323 1674l274 343h272l275 -343h-293l-117 144l-117 -144h-294z" />
<glyph unicode="&#xcb;" horiz-adv-x="1366" d="M166 0v1549h1090v-293h-758v-329h692v-290h-692v-345h772v-292h-1104zM329 1842q0 69 49 118t117.5 49t116 -49t47.5 -118t-47.5 -116.5t-116 -47.5t-117.5 47.5t-49 116.5zM802 1842q0 69 49.5 118t118 49t116 -49t47.5 -118t-47.5 -116.5t-116 -47.5t-118 47.5 t-49.5 116.5z" />
<glyph unicode="&#xcc;" horiz-adv-x="663" d="M-9 2017h336l199 -327h-296zM166 0v1549h332v-1549h-332z" />
<glyph unicode="&#xcd;" horiz-adv-x="663" d="M139 1690l199 327h337l-240 -327h-296zM166 0v1549h332v-1549h-332z" />
<glyph unicode="&#xce;" horiz-adv-x="663" d="M-76 1674l275 343h272l274 -343h-291l-118 144l-117 -144h-295zM166 0v1549h332v-1549h-332z" />
<glyph unicode="&#xcf;" horiz-adv-x="663" d="M-68 1842q0 69 48.5 118t117 49t116 -49t47.5 -118t-47.5 -116.5t-116 -47.5t-117 47.5t-48.5 116.5zM166 0v1549h332v-1549h-332zM405 1842q0 69 48.5 118t117 49t116 -49t47.5 -118t-47.5 -116.5t-116 -47.5t-117 47.5t-48.5 116.5z" />
<glyph unicode="&#xd0;" horiz-adv-x="1663" d="M27 650v245h163v654h580q399 0 605 -212t206 -563.5t-207 -562.5t-604 -211h-580v650h-163zM522 292h248q232 0 352.5 122t120.5 360.5t-120.5 360t-352.5 121.5h-248v-361h343v-245h-343v-358z" />
<glyph unicode="&#xd1;" horiz-adv-x="1689" d="M166 0v1549h311l722 -1011q-7 95 -7 212v799h332v-1549h-312l-721 1011q7 -95 7 -213v-798h-332zM445 1663q-31 133 31 220.5t174 87.5q82 0 186 -46.5t131 -46.5q35 0 47 25.5t3 53.5h222q31 -133 -31 -220t-178 -87q-82 0 -185.5 46.5t-127.5 46.5q-36 0 -48 -25.5 t-4 -54.5h-220z" />
<glyph unicode="&#xd2;" horiz-adv-x="1804" d="M80 774q0 159 52 302.5t152 256.5t259.5 179.5t359 66.5t358.5 -66.5t259.5 -179.5t152.5 -256.5t52 -302.5t-52 -303t-152.5 -256.5t-259.5 -179t-358.5 -66.5t-359 66.5t-259.5 179t-152 256.5t-52 303zM418 773.5q0 -214.5 126.5 -356t358.5 -141.5q230 0 356 141.5 t126 356t-126 356.5t-356 142q-232 0 -358.5 -142t-126.5 -356.5zM559 2017h336l200 -327h-297z" />
<glyph unicode="&#xd3;" horiz-adv-x="1804" d="M80 774q0 159 52 302.5t152 256.5t259.5 179.5t359 66.5t358.5 -66.5t259.5 -179.5t152.5 -256.5t52 -302.5t-52 -303t-152.5 -256.5t-259.5 -179t-358.5 -66.5t-359 66.5t-259.5 179t-152 256.5t-52 303zM418 773.5q0 -214.5 126.5 -356t358.5 -141.5q230 0 356 141.5 t126 356t-126 356.5t-356 142q-232 0 -358.5 -142t-126.5 -356.5zM707 1690l200 327h336l-239 -327h-297z" />
<glyph unicode="&#xd4;" horiz-adv-x="1804" d="M80 774q0 159 52 302.5t152 256.5t259.5 179.5t359 66.5t358.5 -66.5t259.5 -179.5t152.5 -256.5t52 -302.5t-52 -303t-152.5 -256.5t-259.5 -179t-358.5 -66.5t-359 66.5t-259.5 179t-152 256.5t-52 303zM418 773.5q0 -214.5 126.5 -356t358.5 -141.5q230 0 356 141.5 t126 356t-126 356.5t-356 142q-232 0 -358.5 -142t-126.5 -356.5zM494 1674l274 343h272l274 -343h-292l-117 144l-118 -144h-293z" />
<glyph unicode="&#xd5;" horiz-adv-x="1804" d="M80 774q0 159 52 302.5t152 256.5t259.5 179.5t359 66.5t358.5 -66.5t259.5 -179.5t152.5 -256.5t52 -302.5t-52 -303t-152.5 -256.5t-259.5 -179t-358.5 -66.5t-359 66.5t-259.5 179t-152 256.5t-52 303zM418 773.5q0 -214.5 126.5 -356t358.5 -141.5q230 0 356 141.5 t126 356t-126 356.5t-356 142q-232 0 -358.5 -142t-126.5 -356.5zM502 1663q-31 133 31 220.5t174 87.5q82 0 186.5 -46.5t130.5 -46.5q35 0 47.5 25.5t3.5 53.5h221q31 -133 -31 -220t-176 -87q-82 0 -186.5 46.5t-128.5 46.5q-35 0 -47 -25.5t-3 -54.5h-222z" />
<glyph unicode="&#xd6;" horiz-adv-x="1804" d="M80 774q0 159 52 302.5t152 256.5t259.5 179.5t359 66.5t358.5 -66.5t259.5 -179.5t152.5 -256.5t52 -302.5t-52 -303t-152.5 -256.5t-259.5 -179t-358.5 -66.5t-359 66.5t-259.5 179t-152 256.5t-52 303zM418 773.5q0 -214.5 126.5 -356t358.5 -141.5q230 0 356 141.5 t126 356t-126 356.5t-356 142q-232 0 -358.5 -142t-126.5 -356.5zM500 1842q0 69 48.5 118t117 49t116 -49t47.5 -118t-47.5 -116.5t-116 -47.5t-117 47.5t-48.5 116.5zM973 1842q0 69 48.5 118t117 49t116 -49t47.5 -118t-47.5 -116.5t-116 -47.5t-117 47.5t-48.5 116.5z " />
<glyph unicode="&#xd7;" horiz-adv-x="1114" d="M108 498l276 279l-276 276l173 171l276 -277l277 277l173 -171l-277 -276l277 -279l-173 -171l-277 277l-276 -277z" />
<glyph unicode="&#xd8;" horiz-adv-x="1804" d="M80 774q0 159 52 302.5t152 256.5t259.5 179.5t359.5 66.5q223 0 397 -84l116 160h218l-184 -255q135 -113 205 -276.5t70 -349.5q0 -158 -52 -302.5t-152.5 -257t-259.5 -179t-358 -66.5q-234 0 -414 93l-120 -168h-221l192 265q-128 112 -194 273t-66 342zM418 774 q0 -208 118 -343l574 801q-85 40 -207 40q-232 0 -358.5 -142t-126.5 -356zM677 323q97 -47 226 -47q230 0 356 141.5t126 356.5q0 222 -127 357z" />
<glyph unicode="&#xd9;" horiz-adv-x="1658" d="M150 582v967h332v-950q0 -331 347 -331q350 0 350 331v950h330v-967q0 -133 -38 -239t-102 -175t-152.5 -115.5t-185 -65t-202 -18.5t-202 18.5t-185 65t-152.5 115.5t-102 175t-38 239zM485 2017h336l199 -327h-296z" />
<glyph unicode="&#xda;" horiz-adv-x="1658" d="M150 582v967h332v-950q0 -331 347 -331q350 0 350 331v950h330v-967q0 -133 -38 -239t-102 -175t-152.5 -115.5t-185 -65t-202 -18.5t-202 18.5t-185 65t-152.5 115.5t-102 175t-38 239zM633 1690l199 327h335l-238 -327h-296z" />
<glyph unicode="&#xdb;" horiz-adv-x="1658" d="M150 582v967h332v-950q0 -331 347 -331q350 0 350 331v950h330v-967q0 -133 -38 -239t-102 -175t-152.5 -115.5t-185 -65t-202 -18.5t-202 18.5t-185 65t-152.5 115.5t-102 175t-38 239zM418 1674l274 343h272l275 -343h-292l-118 144l-117 -144h-294z" />
<glyph unicode="&#xdc;" horiz-adv-x="1658" d="M150 582v967h332v-950q0 -331 347 -331q350 0 350 331v950h330v-967q0 -133 -38 -239t-102 -175t-152.5 -115.5t-185 -65t-202 -18.5t-202 18.5t-185 65t-152.5 115.5t-102 175t-38 239zM424 1842q0 69 49 118t117.5 49t116 -49t47.5 -118t-47.5 -116.5t-116 -47.5 t-117.5 47.5t-49 116.5zM897 1842q0 69 49.5 118t118 49t116 -49t47.5 -118t-47.5 -116.5t-116 -47.5t-118 47.5t-49.5 116.5z" />
<glyph unicode="&#xdd;" horiz-adv-x="1551" d="M6 1549h374l397 -695l395 695h375l-605 -1000v-549h-330v549zM580 1690l199 327h336l-239 -327h-296z" />
<glyph unicode="&#xde;" horiz-adv-x="1469" d="M166 0v1549h332v-255h252q667 0 668 -520q0 -515 -668 -519h-252v-255h-332zM498 546h268q314 0 313.5 228t-313.5 228h-268v-456z" />
<glyph unicode="&#xdf;" d="M131 0v1084q0 237 128 365t365 130q226 2 341.5 -104t115.5 -234q0 -82 -42.5 -157t-86 -135t-43.5 -102q0 -47 54 -105t119.5 -110t119.5 -137.5t54 -178.5q0 -170 -129 -258.5t-308 -88.5q-142 0 -262 53v242q102 -51 199 -51q84 0 136 33t52 96q0 47 -48.5 107 t-108 109.5t-108 116t-48.5 127.5q0 80 79 190t79 198q0 74 -45 111t-120 37q-86 0 -136 -47.5t-50 -133.5v-1157h-307z" />
<glyph unicode="&#xe0;" horiz-adv-x="1226" d="M53 294q0 126 75 210.5t175 114t216 29.5q131 0 253 -29v38q0 82 -64 130.5t-186 48.5q-177 0 -376 -80v266q213 71 411 71q522 0 522 -481v-338q0 -71 76 -71q31 0 57 10v-202q-84 -32 -170 -30q-168 0 -234 118q-166 -130 -384 -130q-156 0 -263.5 87.5t-107.5 237.5z M217 1547h336l199 -329h-296zM367 319q0 -58 47.5 -94.5t119.5 -36.5q139 0 238 86v167q-101 23 -181 23q-95 0 -159.5 -35t-64.5 -110z" />
<glyph unicode="&#xe1;" horiz-adv-x="1226" d="M53 294q0 126 75 210.5t175 114t216 29.5q131 0 253 -29v38q0 82 -64 130.5t-186 48.5q-177 0 -376 -80v266q213 71 411 71q522 0 522 -481v-338q0 -71 76 -71q31 0 57 10v-202q-84 -32 -170 -30q-168 0 -234 118q-166 -130 -384 -130q-156 0 -263.5 87.5t-107.5 237.5z M365 1218l199 329h337l-240 -329h-296zM367 319q0 -58 47.5 -94.5t119.5 -36.5q139 0 238 86v167q-101 23 -181 23q-95 0 -159.5 -35t-64.5 -110z" />
<glyph unicode="&#xe2;" horiz-adv-x="1226" d="M53 294q0 126 75 210.5t175 114t216 29.5q131 0 253 -29v38q0 82 -64 130.5t-186 48.5q-177 0 -376 -80v266q213 71 411 71q522 0 522 -481v-338q0 -71 76 -71q31 0 57 10v-202q-84 -32 -170 -30q-168 0 -234 118q-166 -130 -384 -130q-156 0 -263.5 87.5t-107.5 237.5z M150 1203l274 344h273l274 -344h-292l-117 144l-117 -144h-295zM367 319q0 -58 47.5 -94.5t119.5 -36.5q139 0 238 86v167q-101 23 -181 23q-95 0 -159.5 -35t-64.5 -110z" />
<glyph unicode="&#xe3;" horiz-adv-x="1226" d="M53 294q0 126 75 210.5t175 114t216 29.5q131 0 253 -29v38q0 82 -64 130.5t-186 48.5q-177 0 -376 -80v266q213 71 411 71q522 0 522 -481v-338q0 -71 76 -71q31 0 57 10v-202q-84 -32 -170 -30q-168 0 -234 118q-166 -130 -384 -130q-156 0 -263.5 87.5t-107.5 237.5z M159 1192q-32 133 30.5 220.5t175.5 87.5q82 0 185.5 -46.5t130.5 -46.5q36 0 48 25.5t3 53.5h222q31 -133 -31 -220t-178 -87q-82 0 -185.5 46.5t-128.5 46.5q-36 0 -47.5 -26t-3.5 -54h-221zM367 319q0 -58 47.5 -94.5t119.5 -36.5q139 0 238 86v167q-101 23 -181 23 q-95 0 -159.5 -35t-64.5 -110z" />
<glyph unicode="&#xe4;" horiz-adv-x="1226" d="M53 294q0 126 75 210.5t175 114t216 29.5q131 0 253 -29v38q0 82 -64 130.5t-186 48.5q-177 0 -376 -80v266q213 71 411 71q522 0 522 -481v-338q0 -71 76 -71q31 0 57 10v-202q-84 -32 -170 -30q-168 0 -234 118q-166 -130 -384 -130q-156 0 -263.5 87.5t-107.5 237.5z M157 1371q0 69 49 117.5t117 48.5t116 -48.5t48 -117.5t-48 -116.5t-116 -47.5t-117 47.5t-49 116.5zM367 319q0 -58 47.5 -94.5t119.5 -36.5q139 0 238 86v167q-101 23 -181 23q-95 0 -159.5 -35t-64.5 -110zM631 1371q0 69 48.5 117.5t117 48.5t116 -48.5t47.5 -117.5 t-47.5 -116.5t-116 -47.5t-117 47.5t-48.5 116.5z" />
<glyph unicode="&#xe5;" horiz-adv-x="1226" d="M53 294q0 126 75 210.5t175 114t216 29.5q131 0 253 -29v38q0 82 -64 130.5t-186 48.5q-177 0 -376 -80v266q213 71 411 71q522 0 522 -481v-338q0 -71 76 -71q31 0 57 10v-202q-84 -32 -170 -30q-168 0 -234 118q-166 -130 -384 -130q-156 0 -263.5 87.5t-107.5 237.5z M281 1422q0 120 81 191t196 71t195.5 -71t80.5 -191q0 -124 -79.5 -195.5t-197.5 -71.5q-114 0 -195 71.5t-81 195.5zM367 319q0 -58 47.5 -94.5t119.5 -36.5q139 0 238 86v167q-101 23 -181 23q-95 0 -159.5 -35t-64.5 -110zM467 1420q0 -42 26 -68.5t66 -26.5t66.5 26.5 t26.5 68.5t-26.5 67.5t-66.5 25.5t-66 -25.5t-26 -67.5z" />
<glyph unicode="&#xe6;" horiz-adv-x="1919" d="M53 294q0 99 41 171.5t114 111t156 55t180 16.5q148 0 261 -29v35q0 180 -279 180q-186 0 -380 -82v270q213 71 413 71q294 0 408 -164q150 164 380 164q201 0 328.5 -103t164 -251t-1.5 -312h-747q25 -106 128.5 -160t244.5 -54q178 0 319 63v-238q-162 -68 -390 -69 q-287 0 -439 170q-217 -170 -511 -170q-167 0 -278.5 86t-111.5 239zM369 319q0 -64 47.5 -96.5t123.5 -32.5q173 0 314 111q-25 64 -31 146q-131 20 -206 20q-106 0 -177 -35.5t-71 -112.5zM1089 624h473q10 78 -42.5 155t-181.5 77q-104 0 -175.5 -62t-73.5 -170z" />
<glyph unicode="&#xe7;" horiz-adv-x="1083" d="M71 515q0 146 52 261t138.5 182.5t190 102t219.5 34.5q183 0 327 -78v-270q-124 80 -283 80q-139 0 -235 -73t-96 -223q0 -143 95.5 -220t230.5 -77q170 0 299 78v-272q-118 -49 -239 -62l-23 -84q206 -19 207 -192q2 -108 -93 -163.5t-226 -55.5t-226 42v190 q76 -44 177 -44q138 0 138 65q0 40 -61 55t-152 4l44 180q-208 27 -346 164t-138 376z" />
<glyph unicode="&#xe8;" horiz-adv-x="1209" d="M71 531q0 144 51 255t133.5 175.5t174.5 98t187 33.5q158 0 275 -60t172 -154t76 -212t-12 -236h-748q25 -110 128.5 -164t245.5 -54q175 0 321 63v-240q-157 -66 -389 -67q-266 0 -440.5 148.5t-174.5 413.5zM276 1530h336l200 -327h-297zM378 631h473q11 73 -42 150.5 t-180 77.5q-102 0 -175.5 -61t-75.5 -167z" />
<glyph unicode="&#xe9;" horiz-adv-x="1209" d="M71 531q0 144 51 255t133.5 175.5t174.5 98t187 33.5q158 0 275 -60t172 -154t76 -212t-12 -236h-748q25 -110 128.5 -164t245.5 -54q175 0 321 63v-240q-157 -66 -389 -67q-266 0 -440.5 148.5t-174.5 413.5zM378 631h473q11 73 -42 150.5t-180 77.5q-102 0 -175.5 -61 t-75.5 -167zM424 1203l200 327h336l-239 -327h-297z" />
<glyph unicode="&#xea;" horiz-adv-x="1209" d="M71 531q0 144 51 255t133.5 175.5t174.5 98t187 33.5q158 0 275 -60t172 -154t76 -212t-12 -236h-748q25 -110 128.5 -164t245.5 -54q175 0 321 63v-240q-157 -66 -389 -67q-266 0 -440.5 148.5t-174.5 413.5zM211 1188l274 342h271l274 -342h-291l-118 144l-117 -144 h-293zM378 631h473q11 73 -42 150.5t-180 77.5q-102 0 -175.5 -61t-75.5 -167z" />
<glyph unicode="&#xeb;" horiz-adv-x="1209" d="M71 531q0 144 51 255t133.5 175.5t174.5 98t187 33.5q158 0 275 -60t172 -154t76 -212t-12 -236h-748q25 -110 128.5 -164t245.5 -54q175 0 321 63v-240q-157 -66 -389 -67q-266 0 -440.5 148.5t-174.5 413.5zM217 1356q0 69 48.5 117.5t117 48.5t116 -48.5t47.5 -117.5 t-47.5 -116.5t-116 -47.5t-117 47.5t-48.5 116.5zM378 631h473q11 73 -42 150.5t-180 77.5q-102 0 -175.5 -61t-75.5 -167zM690 1356q0 69 48.5 117.5t117 48.5t116.5 -48.5t48 -117.5t-48 -116.5t-116.5 -47.5t-117 47.5t-48.5 116.5z" />
<glyph unicode="&#xec;" horiz-adv-x="572" d="M-2 1530h327l142 -327h-290zM133 0v1062h308v-1062h-308z" />
<glyph unicode="&#xed;" horiz-adv-x="572" d="M93 1203l199 327h337l-240 -327h-296zM133 0v1062h308v-1062h-308z" />
<glyph unicode="&#xee;" horiz-adv-x="572" d="M-73 1188l225 336h272l228 -336h-276l-87 135l-88 -135h-274zM133 0v1062h308v-1062h-308z" />
<glyph unicode="&#xef;" horiz-adv-x="572" d="M-73 1356q0 64 45 109.5t107 45.5t108.5 -46t46.5 -110q0 -61 -45 -106.5t-109 -45.5q-62 0 -107.5 44.5t-45.5 108.5zM133 0v1062h308v-1062h-308zM340 1356q0 64 45.5 109.5t110.5 45.5q61 0 106.5 -45.5t45.5 -109.5t-45.5 -108.5t-106.5 -44.5q-64 0 -110 44.5 t-46 108.5z" />
<glyph unicode="&#xf0;" horiz-adv-x="1293" d="M73 480q0 221 132.5 355t330.5 134q120 0 217.5 -44.5t147.5 -119.5q0 17 -6 58q-42 241 -251 367l-177 -177l-142 141l122 120q-108 25 -223 24v232q217 0 409 -68l165 166l142 -142l-119 -119q386 -255 386 -795q0 -329 -156 -486t-412 -157q-247 0 -406.5 135 t-159.5 376zM387 480q0 -102 63 -176t189 -74q125 0 184 69.5t66 169.5q0 101 -66.5 179t-189.5 78q-120 0 -183 -73.5t-63 -172.5z" />
<glyph unicode="&#xf1;" d="M131 0v1062h272v-135q143 166 353 166q203 0 317.5 -123t114.5 -313v-657h-308v617q0 103 -56 156.5t-149 53.5q-144 0 -237 -135v-692h-307zM241 1177q-31 133 31 220t175 87q82 0 186 -46.5t131 -46.5q35 0 47 25.5t3 54.5h221q31 -133 -31 -220.5t-177 -87.5 q-82 0 -185.5 46.5t-128.5 46.5q-36 0 -47.5 -25.5t-3.5 -53.5h-221z" />
<glyph unicode="&#xf2;" horiz-adv-x="1313" d="M71 531q0 265 170 413.5t416 148.5q247 0 416.5 -148.5t169.5 -413.5t-169 -413.5t-417 -148.5q-246 0 -416 148.5t-170 413.5zM316 1517h336l199 -327h-296zM384 531q0 -126 72 -207t200.5 -81t201.5 81t73 207t-73 207t-201.5 81t-200.5 -81t-72 -207z" />
<glyph unicode="&#xf3;" horiz-adv-x="1313" d="M71 531q0 265 170 413.5t416 148.5q247 0 416.5 -148.5t169.5 -413.5t-169 -413.5t-417 -148.5q-246 0 -416 148.5t-170 413.5zM384 531q0 -126 72 -207t200.5 -81t201.5 81t73 207t-73 207t-201.5 81t-200.5 -81t-72 -207zM464 1190l199 327h337l-239 -327h-297z" />
<glyph unicode="&#xf4;" horiz-adv-x="1313" d="M71 531q0 265 170 413.5t416 148.5q247 0 416.5 -148.5t169.5 -413.5t-169 -413.5t-417 -148.5q-246 0 -416 148.5t-170 413.5zM249 1174l275 343h272l274 -343h-291l-118 145l-117 -145h-295zM384 531q0 -126 72 -207t200.5 -81t201.5 81t73 207t-73 207t-201.5 81 t-200.5 -81t-72 -207z" />
<glyph unicode="&#xf5;" horiz-adv-x="1313" d="M71 531q0 265 170 413.5t416 148.5q247 0 416.5 -148.5t169.5 -413.5t-169 -413.5t-417 -148.5q-246 0 -416 148.5t-170 413.5zM259 1163q-31 133 31 220.5t174 87.5q82 0 186 -46.5t131 -46.5q35 0 47 25.5t4 54.5h221q31 -133 -31 -220.5t-177 -87.5q-83 0 -186.5 46.5 t-127.5 46.5q-35 0 -47.5 -25.5t-3.5 -54.5h-221zM384 531q0 -126 72 -207t200.5 -81t201.5 81t73 207t-73 207t-201.5 81t-200.5 -81t-72 -207z" />
<glyph unicode="&#xf6;" horiz-adv-x="1313" d="M71 531q0 265 170 413.5t416 148.5q247 0 416.5 -148.5t169.5 -413.5t-169 -413.5t-417 -148.5q-246 0 -416 148.5t-170 413.5zM257 1343q0 69 48.5 117.5t117 48.5t116 -48.5t47.5 -117.5t-47.5 -116.5t-116 -47.5t-117 47.5t-48.5 116.5zM384 531q0 -126 72 -207 t200.5 -81t201.5 81t73 207t-73 207t-201.5 81t-200.5 -81t-72 -207zM730 1343q0 69 48.5 117.5t117 48.5t116 -48.5t47.5 -117.5t-47.5 -116.5t-116 -47.5t-117 47.5t-48.5 116.5z" />
<glyph unicode="&#xf7;" horiz-adv-x="1233" d="M86 644v261h1062v-261h-1062zM431 281q0 88 54.5 133.5t134 45.5t132.5 -45.5t53 -133.5q0 -91 -53 -137.5t-132.5 -46.5t-134 46.5t-54.5 137.5zM431 1270q0 89 54.5 133.5t134 44.5t132.5 -44.5t53 -133.5q0 -91 -53 -137.5t-132.5 -46.5t-134 46.5t-54.5 137.5z" />
<glyph unicode="&#xf8;" horiz-adv-x="1313" d="M71 531q0 266 170 414t416 148q141 0 259 -49l101 157h133l-135 -213q228 -150 228 -457q0 -265 -169 -413.5t-417 -148.5q-140 0 -261 50l-102 -156h-132l134 213q-226 152 -225 455zM384 531q0 -128 72 -206l308 475q-54 19 -107 19q-129 0 -201 -81t-72 -207zM549 261 q53 -17 108 -18q128 0 201 81t73 207q0 129 -75 208z" />
<glyph unicode="&#xf9;" d="M118 405v657h306v-617q0 -104 53.5 -157.5t151.5 -53.5q141 0 238 135v693h307v-1062h-271v135q-144 -166 -354 -166q-209 0 -320 122t-111 314zM308 1530h336l198 -327h-296z" />
<glyph unicode="&#xfa;" d="M118 405v657h306v-617q0 -104 53.5 -157.5t151.5 -53.5q141 0 238 135v693h307v-1062h-271v135q-144 -166 -354 -166q-209 0 -320 122t-111 314zM456 1203l198 327h337l-239 -327h-296z" />
<glyph unicode="&#xfb;" d="M118 405v657h306v-617q0 -104 53.5 -157.5t151.5 -53.5q141 0 238 135v693h307v-1062h-271v135q-144 -166 -354 -166q-209 0 -320 122t-111 314zM241 1188l274 342h272l275 -342h-292l-118 144l-116 -144h-295z" />
<glyph unicode="&#xfc;" d="M118 405v657h306v-617q0 -104 53.5 -157.5t151.5 -53.5q141 0 238 135v693h307v-1062h-271v135q-144 -166 -354 -166q-209 0 -320 122t-111 314zM247 1356q0 69 49 117.5t117.5 48.5t116.5 -48.5t48 -117.5t-48 -116.5t-116.5 -47.5t-117.5 47.5t-49 116.5zM721 1356 q0 69 49 117.5t117.5 48.5t116 -48.5t47.5 -117.5t-47.5 -116.5t-116 -47.5t-117.5 47.5t-49 116.5z" />
<glyph unicode="&#xfd;" horiz-adv-x="1245" d="M6 1062h326l310 -717l263 717h319l-472 -1191q-157 -386 -458 -386q-64 0 -165 24v254q73 -15 126 -15q168 0 252 233l2 4zM409 1203l199 327h336l-239 -327h-296z" />
<glyph unicode="&#xfe;" horiz-adv-x="1374" d="M131 -487v2036h307v-616q140 159 356 160q238 0 374.5 -167.5t136.5 -394.5q0 -232 -139.5 -397t-371.5 -165q-219 0 -356 151v-607h-307zM435 414q38 -78 112 -127.5t168 -52.5q124 -2 200 83.5t76 213.5t-75.5 215.5t-200.5 87.5q-97 0 -171.5 -52t-108.5 -132v-236z " />
<glyph unicode="&#xff;" horiz-adv-x="1245" d="M6 1062h326l310 -717l263 717h319l-472 -1191q-157 -386 -458 -386q-64 0 -165 24v254q73 -15 126 -15q168 0 252 233l2 4zM201 1356q0 69 48.5 117.5t117 48.5t116.5 -48.5t48 -117.5t-48 -116.5t-116.5 -47.5t-117 47.5t-48.5 116.5zM675 1356q0 69 48.5 117.5 t117 48.5t116 -48.5t47.5 -117.5t-47.5 -116.5t-116 -47.5t-117 47.5t-48.5 116.5z" />
<glyph unicode="&#x152;" horiz-adv-x="2309" d="M80 774q0 159 52 302.5t152 256.5t259.5 179.5t359.5 66.5q150 0 267 -30h1031v-293h-706v-329h639v-290h-639v-345h719v-292h-1044q-118 -31 -267 -31q-199 0 -359 66.5t-260 179t-152 256.5t-52 303zM420 774q0 -225 140.5 -365.5t361.5 -140.5q122 0 248 46v923 q-129 44 -248 44q-221 0 -361.5 -139.5t-140.5 -367.5z" />
<glyph unicode="&#x153;" horiz-adv-x="2067" d="M71 531q0 265 164 413.5t394 148.5q143 0 260.5 -54.5t182.5 -158.5q148 213 418 213q203 0 331.5 -103t165.5 -252t-1 -311h-747q25 -106 129.5 -160t246.5 -54q175 0 316 63v-238q-159 -68 -387 -69q-319 0 -469 217q-138 -217 -444 -217q-230 0 -395 148.5t-165 413.5 zM384 531q0 -126 72 -207t200.5 -81t201.5 81t73 207t-73 207t-201.5 81t-200.5 -81t-72 -207zM1237 624h473q10 78 -42.5 155t-181.5 77q-104 0 -175.5 -62t-73.5 -170z" />
<glyph unicode="&#x178;" horiz-adv-x="1551" d="M6 1549h374l397 -695l395 695h375l-605 -1000v-549h-330v549zM372 1842q0 69 48.5 118t117 49t116 -49t47.5 -118t-47.5 -116.5t-116 -47.5t-117 47.5t-48.5 116.5zM845 1842q0 69 48.5 118t117 49t116 -49t47.5 -118t-47.5 -116.5t-116 -47.5t-117 47.5t-48.5 116.5z " />
<glyph unicode="&#x2c6;" horiz-adv-x="813" d="M-4 1674l274 343h272l274 -343h-292l-117 144l-118 -144h-293z" />
<glyph unicode="&#x2dc;" horiz-adv-x="884" d="M46 1663q-31 133 31 220.5t175 87.5q82 0 186 -46.5t130 -46.5q36 0 48.5 25.5t2.5 53.5h221q32 -133 -30.5 -220t-176.5 -87q-82 0 -186.5 46.5t-127.5 46.5q-36 0 -48 -25.5t-3 -54.5h-222z" />
<glyph unicode="&#x2000;" horiz-adv-x="1073" />
<glyph unicode="&#x2001;" horiz-adv-x="2146" />
<glyph unicode="&#x2002;" horiz-adv-x="1073" />
<glyph unicode="&#x2003;" horiz-adv-x="2146" />
<glyph unicode="&#x2004;" horiz-adv-x="715" />
<glyph unicode="&#x2005;" horiz-adv-x="536" />
<glyph unicode="&#x2006;" horiz-adv-x="357" />
<glyph unicode="&#x2007;" horiz-adv-x="357" />
<glyph unicode="&#x2008;" horiz-adv-x="268" />
<glyph unicode="&#x2009;" horiz-adv-x="429" />
<glyph unicode="&#x200a;" horiz-adv-x="119" />
<glyph unicode="&#x2010;" horiz-adv-x="1065" d="M122 409v258h822v-258h-822z" />
<glyph unicode="&#x2011;" horiz-adv-x="1065" d="M122 409v258h822v-258h-822z" />
<glyph unicode="&#x2012;" horiz-adv-x="1065" d="M122 409v258h822v-258h-822z" />
<glyph unicode="&#x2013;" horiz-adv-x="1277" d="M122 409v258h1035v-258h-1035z" />
<glyph unicode="&#x2014;" horiz-adv-x="1711" d="M122 409v258h1469v-258h-1469z" />
<glyph unicode="&#x2018;" horiz-adv-x="583" d="M62 954l217 595h247l-139 -595h-325z" />
<glyph unicode="&#x2019;" horiz-adv-x="572" d="M78 954l139 595h325l-217 -595h-247z" />
<glyph unicode="&#x201a;" horiz-adv-x="578" d="M13 -321l139 595h325l-216 -595h-248z" />
<glyph unicode="&#x201c;" horiz-adv-x="1007" d="M62 954l217 595h247l-139 -595h-325zM487 954l216 595h248l-139 -595h-325z" />
<glyph unicode="&#x201d;" horiz-adv-x="996" d="M78 954l139 595h325l-217 -595h-247zM502 954l140 595h325l-217 -595h-248z" />
<glyph unicode="&#x201e;" horiz-adv-x="1003" d="M13 -321l139 595h325l-216 -595h-248zM438 -321l140 595h325l-217 -595h-248z" />
<glyph unicode="&#x2022;" horiz-adv-x="848" d="M146 774.5q0 132.5 80 200t198 67.5q122 0 200.5 -67.5t78.5 -200t-78.5 -201.5t-200.5 -69q-119 0 -198.5 69t-79.5 201.5z" />
<glyph unicode="&#x2026;" horiz-adv-x="1634" d="M89 152.5q0 88.5 54 135t133.5 46.5t132.5 -46.5t53 -135t-53 -135t-132.5 -46.5t-133.5 46.5t-54 135zM631 152.5q0 88.5 54 135t133 46.5t132.5 -46.5t53.5 -135t-53.5 -135t-132.5 -46.5t-133 46.5t-54 135zM1172 152.5q0 88.5 54.5 135t134 46.5t133 -46.5t53.5 -135 t-53.5 -135t-133 -46.5t-134 46.5t-54.5 135z" />
<glyph unicode="&#x202f;" horiz-adv-x="429" />
<glyph unicode="&#x2039;" horiz-adv-x="731" d="M64 502v57l286 401h309l-300 -429l300 -429h-309z" />
<glyph unicode="&#x203a;" horiz-adv-x="731" d="M73 102l301 429l-301 429h309l285 -401v-57l-285 -400h-309z" />
<glyph unicode="&#x205f;" horiz-adv-x="536" />
<glyph unicode="&#x20ac;" horiz-adv-x="1607" d="M76 502v197h163v53v53h-163v197h196q78 259 291.5 396t483.5 137q245 0 443 -100v-316q-158 122 -386 122q-148 0 -271 -61t-187 -178h557v-197h-623q-2 -18 -2 -53t2 -53h623v-197h-559q63 -118 187.5 -177t270.5 -59q243 0 388 128v-326q-205 -99 -439 -99 q-272 0 -487.5 137t-291.5 396h-196z" />
<glyph unicode="&#x2122;" horiz-adv-x="1505" d="M84 1393v156h511v-156h-171v-416h-169v416h-171zM671 977v572h156l188 -262l190 262h158v-572h-173v313l-128 -180h-91l-129 180v-313h-171z" />
<glyph unicode="&#x25fc;" horiz-adv-x="1061" d="M0 0v1062h1062v-1062h-1062z" />
<glyph unicode="&#xfb01;" horiz-adv-x="1351" d="M51 802v260h183v71q0 221 137.5 333.5t362.5 112.5q173 0 368 -68v-261q-153 71 -313 71q-112 0 -180.5 -47.5t-68.5 -142.5v-69h676v-1062h-304v802h-372v-802h-306v802h-183z" />
<glyph unicode="&#xfb02;" horiz-adv-x="1404" d="M51 802v260h183v84q0 210 125.5 321.5t317.5 111.5q179 0 332 -66l261 44v-1557h-308v1277q-101 44 -210 44q-95 0 -153.5 -44.5t-58.5 -134.5v-80h287v-260h-287v-802h-306v802h-183z" />
<glyph unicode="&#xfb03;" horiz-adv-x="2102" d="M51 802v260h183v63q0 215 130 323.5t333 108.5q181 0 369 -82q133 140 390 140q183 0 369 -68v-262q-159 74 -312 73q-112 0 -181 -49t-69 -150v-97h706v-1062h-308v802h-398v-802h-307v802h-416v-802h-306v802h-183zM540 1062h416v99q0 51 6 95q-95 49 -212 49 q-98 0 -154 -46.5t-56 -135.5v-61z" />
<glyph unicode="&#xfb04;" horiz-adv-x="2125" d="M51 802v260h183v63q0 215 130 323.5t333 108.5q183 0 369 -82q119 127 332 127q179 0 332 -67l260 44v-1579h-306v1298q-102 44 -209 44q-95 0 -153.5 -46t-58.5 -141v-93h286v-260h-286v-802h-307v802h-416v-802h-306v802h-183zM540 1062h416v99q0 51 6 95 q-95 49 -212 49q-98 0 -154 -46.5t-56 -135.5v-61z" />
</font>
</defs>
</svg>
