<?xml version="1.0" standalone="no"?>
<!DOCTYPE svg PUBLIC "-//W3C//DTD SVG 1.1//EN" "http://www.w3.org/Graphics/SVG/1.1/DTD/svg11.dtd" >
<svg xmlns="http://www.w3.org/2000/svg" xmlns:xlink="http://www.w3.org/1999/xlink" version="1.1">
<metadata></metadata>
<defs>
<font id="mullerlightuploaded_file" horiz-adv-x="1821" >
<font-face units-per-em="2048" ascent="1556" descent="-492" />
<missing-glyph horiz-adv-x="568" />
<glyph horiz-adv-x="0" />
<glyph unicode="&#xd;" horiz-adv-x="735" />
<glyph unicode=" "  horiz-adv-x="568" />
<glyph unicode="&#x09;" horiz-adv-x="568" />
<glyph unicode="&#xa0;" horiz-adv-x="568" />
<glyph unicode="!" horiz-adv-x="477" d="M152 66.5q0 39.5 24.5 61.5t62 22t62 -22t24.5 -61.5t-24.5 -61.5t-62 -22t-62 22t-24.5 61.5zM173 1549h130l-9 -1131h-110z" />
<glyph unicode="&#x22;" horiz-adv-x="645" d="M146 1194v355h122l-34 -355h-88zM399 1194v355h120l-32 -355h-88z" />
<glyph unicode="#" horiz-adv-x="1437" d="M86 396v111h217l117 493h-223v110h250l93 397h125l-93 -397h466l93 397h125l-93 -397h188v-110h-214l-117 -493h221v-111h-247l-93 -396h-127l93 396h-464l-93 -396h-126l92 396h-190zM429 507h466l118 493h-467z" />
<glyph unicode="$" horiz-adv-x="1266" d="M106 106v131q234 -138 533 -138q412 0 412 268q0 93 -52 158.5t-135 100.5t-182.5 64t-200.5 60t-183.5 74t-135 121.5t-52.5 189.5q0 177 129.5 276.5t326.5 114.5v266h111v-264q241 -15 409 -108v-133q-190 118 -449 117q-175 0 -284.5 -65t-109.5 -200 q0 -88 52.5 -149t135 -95t182 -62t200.5 -60t183.5 -76.5t135 -126t52.5 -194.5q0 -201 -141.5 -298t-365.5 -103v-262h-111v265q-264 18 -460 128z" />
<glyph unicode="%" horiz-adv-x="1956" d="M76 1238.5q0 154.5 101.5 244t246.5 89.5q144 0 245 -89.5t101 -244t-101 -244t-245 -89.5q-145 0 -246.5 89.5t-101.5 244zM194 1238.5q0 -99.5 63.5 -161.5t166.5 -62q102 0 164 62t62 161.5t-62 161.5t-164 62q-103 0 -166.5 -62t-63.5 -161.5zM464 -133l905 1813h126 l-904 -1813h-127zM1188 309q0 155 101.5 245t247.5 90q143 0 244 -90t101 -245t-101 -244.5t-244 -89.5q-146 0 -247.5 89.5t-101.5 244.5zM1307 310q0 -99 63 -161.5t167 -62.5q101 0 163.5 62.5t62.5 161.5t-62 161.5t-164 62.5q-104 0 -167 -62.5t-63 -161.5z" />
<glyph unicode="&#x26;" horiz-adv-x="1536" d="M114 365q0 247 346 449q-203 199 -203 376q0 159 130 270.5t332 111.5q177 0 287.5 -89.5t110.5 -232.5q0 -76 -38.5 -144t-110 -123.5t-136 -95.5t-148.5 -85q-18 -8 -27 -13l489 -447q120 159 114 368h131q0 -254 -152 -453l281 -257h-159l-196 175 q-215 -199 -541 -200q-236 0 -373 109.5t-137 280.5zM245 372q0 -127 102 -202t286 -75q266 0 439 164l-523 471q-135 -78 -219.5 -162t-84.5 -196zM384 1188q0 -137 184 -316q226 114 297 172q122 100 123 197q0 97 -72.5 155t-198.5 58q-150 0 -241.5 -78t-91.5 -188z" />
<glyph unicode="'" horiz-adv-x="393" d="M146 1194v355h122l-34 -355h-88z" />
<glyph unicode="(" horiz-adv-x="599" d="M104 774.5q0 263.5 87.5 532t237.5 483.5h124q-146 -211 -228 -481.5t-82 -534t82 -534.5t228 -481h-124q-150 215 -237.5 483.5t-87.5 532z" />
<glyph unicode=")" horiz-adv-x="601" d="M49 -241q143 211 225 481.5t82 534t-82 534t-225 481.5h124q150 -215 237.5 -483.5t87.5 -532t-87.5 -532.5t-237.5 -483h-124z" />
<glyph unicode="*" horiz-adv-x="963" d="M110 1256l42 111l283 -109l-11 291h116l-14 -291l286 109l39 -111l-292 -82l193 -243l-95 -66l-175 263l-174 -263l-95 66l192 243z" />
<glyph unicode="+" horiz-adv-x="1178" d="M106 715v119h425v424h119v-424h422v-119h-422v-426h-119v426h-425z" />
<glyph unicode="," horiz-adv-x="475" d="M64 -325l117 496h133l-146 -496h-104z" />
<glyph unicode="-" horiz-adv-x="1072" d="M148 485v119h776v-119h-776z" />
<glyph unicode="." horiz-adv-x="454" d="M139 68.5q0 39.5 25.5 62.5t63.5 23t63 -23t25 -62.5t-25 -62.5t-63 -23t-63.5 23t-25.5 62.5z" />
<glyph unicode="/" horiz-adv-x="914" d="M80 -129l659 1805h95l-659 -1805h-95z" />
<glyph unicode="0" horiz-adv-x="1556" d="M122 752.5q0 351.5 166 563.5t491 212t490.5 -212t165.5 -563.5t-165.5 -564.5t-490.5 -213t-491 213t-166 564.5zM255 752q0 -307 131 -480t392.5 -173t392.5 173t131 480t-131 479.5t-392.5 172.5t-392.5 -172.5t-131 -479.5z" />
<glyph unicode="1" horiz-adv-x="924" d="M120 0v126h329v1237l-329 -124v126l365 139h95v-1378h294v-126h-754z" />
<glyph unicode="2" horiz-adv-x="1256" d="M102 0v66q0 126 38.5 225.5t117 174t148 123t176.5 108.5q7 2 10 4t8.5 5.5t9.5 5.5q84 48 119 70.5t98.5 70.5t90 83t50 90t23.5 118q0 124 -101 193.5t-275 69.5q-239 0 -461 -151v131q211 141 470 141q226 0 362.5 -102.5t136.5 -283.5q0 -91 -34 -170t-104.5 -143.5 t-130.5 -108t-162 -103.5q-219 -131 -283 -182q-162 -135 -164 -311l892 2v-126h-1035z" />
<glyph unicode="3" horiz-adv-x="1296" d="M124 73v130q215 -106 513 -104q190 0 303 78t113 232q0 159 -112 232.5t-295 73.5h-224v125l211 -2q175 0 266.5 79t91.5 198q0 130 -103 211t-284 81q-239 0 -454 -109v129q209 101 469 101q226 0 362 -114t136 -289q0 -120 -67.5 -213t-184.5 -125q133 -33 223.5 -128 t90.5 -256q0 -203 -149.5 -315.5t-381.5 -112.5q-312 0 -524 98z" />
<glyph unicode="4" horiz-adv-x="1416" d="M59 352v117l848 1035h144v-1031h298v-121h-298v-352h-131v352h-861zM224 473h696v854z" />
<glyph unicode="5" horiz-adv-x="1273" d="M126 78v123q203 -104 467 -104q203 0 324 91t121 253q0 181 -132 262.5t-340 81.5q-194 0 -400 -70l49 789h882v-126h-759l-32 -517q145 44 302 44q152 0 274 -43t205 -151.5t83 -269.5q0 -213 -155.5 -339.5t-406.5 -126.5q-279 0 -482 103z" />
<glyph unicode="6" horiz-adv-x="1359" d="M124 719q0 407 182.5 608t489.5 201q190 0 346 -84v-123q-157 84 -344 83q-243 0 -391 -160t-152 -507q230 187 506 187q206 0 356.5 -122.5t150.5 -343.5q0 -226 -150.5 -354.5t-376.5 -128.5q-308 0 -462.5 196t-154.5 548zM259 602q22 -248 143.5 -376.5t329.5 -128.5 q177 0 290 89.5t113 267.5q0 179 -114 263.5t-291 84.5q-276 0 -471 -200z" />
<glyph unicode="7" horiz-adv-x="1167" d="M68 1378v126h1055v-117l-663 -1387h-141l658 1378h-909z" />
<glyph unicode="8" horiz-adv-x="1425" d="M118 409q0 122 70.5 234.5t205.5 185.5q-223 115 -223 323q0 155 137 265.5t402 110.5q247 0 394.5 -119t151.5 -281q2 -120 -57.5 -224t-170.5 -174q281 -124 281 -356q0 -167 -150 -283t-440 -116q-287 0 -444 124.5t-157 309.5zM247 422q0 -148 122 -236.5t352 -88.5 q206 0 332 77.5t126 192.5q0 60 -25.5 108.5t-57.5 78.5t-99.5 60t-111 44.5t-131.5 38.5q-20 6 -30 8q-135 38 -217 69q-125 -55 -192.5 -150.5t-67.5 -201.5zM303 1152q0 -59 25.5 -106.5t56.5 -76.5t92 -56.5t99.5 -40.5t111.5 -34q19 -6 31 -9q27 -8 93 -26t102 -29 q211 119 211 332q0 124 -110 212.5t-308 88.5q-192 0 -298 -73.5t-106 -181.5z" />
<glyph unicode="9" horiz-adv-x="1357" d="M93 1047q0 225 149 353t375 128q307 0 463.5 -196.5t156.5 -546.5q0 -407 -182.5 -608.5t-490.5 -201.5q-195 0 -345 84v125q157 -85 340 -85q243 0 391.5 160.5t153.5 508.5q-228 -188 -505 -188q-205 0 -355.5 122.5t-150.5 344.5zM226 1051q0 -179 114 -264.5 t291 -85.5q274 0 468 200q-21 247 -143 376.5t-330 129.5q-177 0 -288.5 -90.5t-111.5 -265.5z" />
<glyph unicode=":" horiz-adv-x="473" d="M148 68.5q0 39.5 25.5 62.5t63 23t63 -23t25.5 -62.5t-25.5 -62.5t-63 -23t-63 23t-25.5 62.5zM148 878q0 40 25.5 63t63 23t63 -23t25.5 -63q0 -42 -25.5 -64t-63 -22t-63 22t-25.5 64z" />
<glyph unicode=";" horiz-adv-x="623" d="M152 -325l118 496h133l-146 -496h-105zM224 964q0 40 25 63.5t63 23.5t63.5 -23.5t25.5 -63.5q0 -42 -25.5 -64t-63.5 -22t-63 22t-25 64z" />
<glyph unicode="&#x3c;" horiz-adv-x="1070" d="M97 710v128l815 346v-125l-686 -285l686 -285v-124z" />
<glyph unicode="=" horiz-adv-x="1213" d="M154 513v120h905v-120h-905zM154 916v119h905v-119h-905z" />
<glyph unicode="&#x3e;" horiz-adv-x="1070" d="M159 365v124l686 285l-686 285v125l814 -346v-128z" />
<glyph unicode="?" horiz-adv-x="1083" d="M84 1327v127q192 120 427 118q219 0 354 -95t135 -270q0 -88 -44 -175.5t-106.5 -159.5t-124.5 -140.5t-106 -144t-44 -146.5h-126q0 97 65.5 201.5t144 182.5t143.5 178.5t65 193.5q0 126 -100 188.5t-276 62.5q-203 0 -407 -121zM422 68.5q0 39.5 25.5 62.5t63.5 23 t63 -23t25 -62.5t-25 -62.5t-63 -23t-63.5 23t-25.5 62.5z" />
<glyph unicode="@" horiz-adv-x="2330" d="M104 531q0 203 72.5 389t205.5 332t341 233t461 87q243 0 445.5 -88.5t327 -230t192 -307t67.5 -329.5q0 -292 -115 -445t-303 -153q-133 0 -219 65.5t-108 189.5q-51 -95 -146 -150.5t-210 -55.5q-186 0 -308.5 128.5t-122.5 327.5q0 201 122.5 330.5t308.5 129.5 q114 0 206.5 -55t136.5 -137v172h123v-601q0 -232 219 -232q135 0 209 130t74 356q0 145 -59 290.5t-168 267t-285 197.5t-387 76q-292 0 -512.5 -131t-329 -337t-108.5 -449q0 -285 139.5 -496.5t365 -316.5t500.5 -105q263 0 488 79v-123q-215 -80 -490 -80 q-226 0 -429.5 68.5t-361 196.5t-250 330t-92.5 447zM808 526.5q0 -152.5 93 -247.5t227 -95q124 0 211.5 70.5t118.5 172.5v199q-31 102 -118.5 172.5t-211.5 70.5q-135 0 -227.5 -95t-92.5 -247.5z" />
<glyph unicode="A" horiz-adv-x="1576" d="M25 0l690 1549h148l688 -1549h-142l-183 416h-874l-186 -416h-141zM403 540h769l-364 825q-7 17 -21 49q-13 -32 -19 -49z" />
<glyph unicode="B" horiz-adv-x="1512" d="M215 0v1549h601q243 0 383.5 -99t140.5 -291q0 -144 -80.5 -231.5t-197.5 -113.5q137 -29 237.5 -122t102.5 -272q0 -101 -39.5 -179.5t-98.5 -123t-140.5 -72.5t-152 -36.5t-150.5 -8.5h-606zM348 126h448q78 0 133 4.5t123.5 22.5t113 48.5t74.5 90t30 141.5 q0 310 -409 310h-513v-617zM348 867h524q143 0 239 67.5t96 207.5q0 280 -399 280h-460v-555z" />
<glyph unicode="C" horiz-adv-x="1450" d="M110 758q0 195 69.5 354.5t185 258t257.5 150t294 51.5q243 0 433 -103v-133q-175 112 -414 112q-130 0 -250.5 -42.5t-221 -124.5t-160.5 -217t-60 -306q0 -162 61 -291t161.5 -207.5t223.5 -119.5t253 -41q247 0 423 114v-131q-194 -106 -449 -107q-148 0 -289.5 51.5 t-258 145.5t-187.5 246t-71 340z" />
<glyph unicode="D" horiz-adv-x="1625" d="M215 0v1549h479q401 0 611 -213t210 -562.5t-210 -561.5t-611 -212h-479zM348 126h349q335 0 511.5 173.5t176.5 474.5t-176.5 474.5t-511.5 173.5h-349v-1296z" />
<glyph unicode="E" horiz-adv-x="1372" d="M215 0v1549h1028v-127h-898v-580h832v-125h-832v-591h913v-126h-1043z" />
<glyph unicode="F" horiz-adv-x="1326" d="M215 0v1549h1032v-127h-902v-603h839v-127h-839v-692h-130z" />
<glyph unicode="G" horiz-adv-x="1562" d="M108 774q0 197 69.5 353t187 251t261.5 144.5t301 49.5q255 0 458 -101v-133q-184 110 -441 110q-135 0 -256.5 -39.5t-223 -117t-162.5 -211t-61 -306.5q0 -177 61 -312t164.5 -211t226.5 -114t261 -38q185 0 338 72v645h133v-736q-222 -104 -481 -105 q-164 0 -308.5 45.5t-265.5 136t-191.5 250t-70.5 367.5z" />
<glyph unicode="H" horiz-adv-x="1693" d="M215 0v1549h130v-709h1004v709h131v-1549h-131v715h-1004v-715h-130z" />
<glyph unicode="I" horiz-adv-x="559" d="M215 0v1549h130v-1549h-130z" />
<glyph unicode="J" horiz-adv-x="1140" d="M51 73v130q148 -99 376 -99q382 0 383 325v993h-478v127h608v-1125q0 -223 -134.5 -334.5t-356.5 -111.5q-245 0 -398 95z" />
<glyph unicode="K" horiz-adv-x="1459" d="M215 0v1549h130v-695h405l500 695h150l-541 -755l595 -794h-154l-546 730h-409v-730h-130z" />
<glyph unicode="L" horiz-adv-x="1275" d="M215 0v1549h130v-1423h896v-126h-1026z" />
<glyph unicode="M" horiz-adv-x="1992" d="M215 0v1549h110l673 -994l670 994h111v-1549h-131v1296l-610 -902h-82l-611 902v-1296h-130z" />
<glyph unicode="N" horiz-adv-x="1693" d="M215 0v1549h119l1015 -1325v132v1193h131v-1549h-119l-1016 1327v-133v-1194h-130z" />
<glyph unicode="O" d="M106 774q0 150 51 290.5t148.5 255.5t254.5 183.5t351.5 68.5t351.5 -68.5t254.5 -183.5t148 -255.5t50.5 -290.5t-50.5 -291t-148 -256t-254.5 -183.5t-351.5 -68.5t-351.5 68.5t-254.5 183.5t-148.5 256t-51 291zM239 774q0 -175 70.5 -324t227.5 -250t374 -101 t374 101t227.5 250t70.5 324t-70.5 324t-227.5 249.5t-374 100.5t-374 -100.5t-227.5 -249.5t-70.5 -324z" />
<glyph unicode="P" horiz-adv-x="1450" d="M215 0v1549h509q652 0 652 -492q0 -493 -652 -493h-379v-564h-130zM348 690h382q513 0 513 367q0 203 -138 284t-375 81h-382v-732z" />
<glyph unicode="Q" d="M106 774q0 150 51 290.5t148.5 255.5t254.5 183.5t351.5 68.5t351.5 -68.5t254.5 -183.5t148 -255.5t50.5 -290.5q0 -356 -236 -586l238 -237l-86 -84l-245 245q-201 -137 -475 -137q-195 0 -352 68.5t-254.5 183.5t-148.5 256t-51 291zM239 774q0 -175 70.5 -324 t227.5 -250t375 -101q214 0 382 106l-308 308l84 84l317 -316q196 190 196 493q0 175 -70.5 324t-227.5 249.5t-374 100.5t-374 -100.5t-227.5 -249.5t-70.5 -324z" />
<glyph unicode="R" horiz-adv-x="1526" d="M215 0v1549h595q108 0 203 -24.5t179.5 -75.5t134 -144t49.5 -216q0 -206 -128.5 -317t-318.5 -135l551 -637h-163l-540 626h-432v-626h-130zM348 752h471q177 0 300.5 80t123.5 256.5t-122.5 255t-301.5 78.5h-471v-670z" />
<glyph unicode="S" horiz-adv-x="1275" d="M118 106v131q234 -138 519 -138q188 0 306.5 64.5t118.5 203.5q0 93 -52 160.5t-135 107.5t-183.5 73t-201.5 69.5t-183.5 83t-134.5 127.5t-52 191q0 190 148 291.5t363 101.5q268 0 455 -108v-132q-183 116 -443 116h-4q-170 0 -278.5 -64.5t-108.5 -199.5 q0 -89 52 -152t135 -102t184 -71t201 -68.5t183.5 -85t135 -132.5t51.5 -197q0 -139 -80 -232q-78 -93 -198 -132q-114 -37 -255 -37h-15q-292 0 -528 131z" />
<glyph unicode="T" horiz-adv-x="1324" d="M31 1422v127h1263v-127h-566v-1422h-131v1422h-566z" />
<glyph unicode="U" horiz-adv-x="1661" d="M197 553v996h130v-992q0 -458 505 -458q502 0 502 458v992h130v-996q0 -304 -174.5 -441t-457.5 -137q-135 0 -246 31.5t-200.5 95.5t-139 179t-49.5 272z" />
<glyph unicode="V" horiz-adv-x="1514" d="M33 1549h142l581 -1401l584 1401h142l-657 -1549h-135z" />
<glyph unicode="W" horiz-adv-x="2206" d="M42 1549h144l420 -1385l438 1377h119l439 -1377l420 1385h143l-491 -1549h-146l-424 1323l-427 -1323h-143z" />
<glyph unicode="X" horiz-adv-x="1391" d="M13 0l604 796l-571 753h157l494 -648l493 648h155l-571 -753l604 -796h-154l-527 692l-526 -692h-158z" />
<glyph unicode="Y" horiz-adv-x="1423" d="M38 1549h146l528 -825l529 825h146l-608 -945v-604h-133v604z" />
<glyph unicode="Z" horiz-adv-x="1281" d="M68 0v118l958 1304h-927v127h1087v-118l-960 -1305h986v-126h-1144z" />
<glyph unicode="[" horiz-adv-x="583" d="M162 -243v2035h369v-127h-239v-1783h239v-125h-369z" />
<glyph unicode="\" horiz-adv-x="914" d="M82 1676h95l659 -1805h-95z" />
<glyph unicode="]" horiz-adv-x="585" d="M55 -118h237v1783h-237v127h369v-2035h-369v125z" />
<glyph unicode="^" horiz-adv-x="1138" d="M112 863l403 686h111l400 -686h-139l-317 546l-315 -546h-143z" />
<glyph unicode="_" horiz-adv-x="979" d="M0 -190h980v-120h-980v120z" />
<glyph unicode="`" horiz-adv-x="390" d="M0 2024h157l199 -314h-139z" />
<glyph unicode="a" horiz-adv-x="1198" d="M80 289q0 182 137 265t332 83q170 0 333 -46v70q0 141 -88.5 225.5t-249.5 84.5q-203 0 -380 -76v125q188 65 393 66q213 0 331.5 -115t118.5 -325v-454q0 -93 95 -93q35 0 82 15v-101q-60 -22 -116 -22q-168 0 -183 163q-167 -179 -436 -179q-152 0 -260.5 81 t-108.5 233zM208 296q0 -104 77.5 -158t187.5 -54q122 0 230.5 54t178.5 154v195q-168 44 -316 44q-150 0 -254 -56.5t-104 -178.5z" />
<glyph unicode="b" horiz-adv-x="1366" d="M173 0v1549h125v-693q66 100 179.5 165t261.5 65q228 0 378.5 -156t150.5 -399.5t-150.5 -399.5t-378.5 -156q-285 0 -454 244v-219h-112zM296 387q49 -127 164 -211.5t264 -84.5q179 0 298.5 121t119.5 319q0 201 -118.5 320.5t-299.5 119.5q-148 0 -263.5 -85.5 t-164.5 -210.5v-288z" />
<glyph unicode="c" horiz-adv-x="1091" d="M99 524q0 186 87.5 317.5t213.5 188t273 56.5q194 0 321 -86v-122q-125 93 -306 93q-190 0 -326 -113t-136 -332q0 -211 131.5 -323t317.5 -112q184 0 329 86v-126q-150 -76 -347 -76q-226 0 -392 141.5t-166 407.5z" />
<glyph unicode="d" horiz-adv-x="1366" d="M99 530.5q0 243.5 151 399.5t379 156q150 0 262.5 -65t178.5 -165v693h124v-1549h-113v219q-164 -243 -452 -244q-228 0 -379 156t-151 399.5zM226 531q0 -198 119 -319t299 -121q148 0 263 85t163 211v288q-48 126 -163 211t-263 85q-182 0 -300 -119.5t-118 -320.5z " />
<glyph unicode="e" horiz-adv-x="1211" d="M99 531q0 260 158.5 407.5t366.5 147.5q118 0 210.5 -36.5t149 -98.5t94 -141.5t40.5 -165.5q1 -16 0 -32q0 -70 -10 -139h-882q11 -190 146 -286t329 -96q199 0 348 86v-124q-144 -78 -365 -78q-250 0 -417.5 142t-167.5 414zM226 584h772q2 20 2 40q0 118 -76 224 q-90 124 -291 123q-164 0 -281.5 -102.5t-125.5 -284.5z" />
<glyph unicode="f" horiz-adv-x="813" d="M51 944v118h192v150q0 190 103 275t256 85q145 0 261 -48v-117q-102 51 -232 51q-264 0 -264 -251v-145h429v-118h-429v-944h-124v944h-192z" />
<glyph unicode="g" horiz-adv-x="1366" d="M99 530.5q0 243.5 151 399.5t379 156q289 0 452 -244v220h113v-1062q0 -255 -164.5 -383t-403.5 -128q-230 0 -425 100v122q194 -106 409 -107q199 0 329.5 96.5t130.5 299.5v211q-63 -104 -177 -170t-264 -66q-228 0 -379 156t-151 399.5zM226 531q0 -198 119 -319 t299 -121q148 0 263 80.5t163 200.5v303q-48 126 -163 211t-263 85q-182 0 -300 -119.5t-118 -320.5z" />
<glyph unicode="h" horiz-adv-x="1286" d="M173 0v1549h125v-664q64 82 168 141.5t231 59.5q188 0 309.5 -118.5t121.5 -313.5v-654h-126v639q0 159 -88.5 245.5t-229.5 86.5q-127 0 -225 -71t-161 -172v-728h-125z" />
<glyph unicode="i" horiz-adv-x="483" d="M154 1385q0 37 25.5 60.5t61 23.5t60 -23.5t24.5 -60.5q0 -40 -24.5 -62.5t-59.5 -22.5q-38 0 -62.5 21t-24.5 64zM179 0v1062h127v-1062h-127z" />
<glyph unicode="j" horiz-adv-x="481" d="M-139 -367q48 -24 120 -24h6q192 0 192 188v1265h124v-1283q0 -157 -82 -223.5t-204 -66.5q-90 0 -156 26v118zM152 1385q0 37 25.5 60.5t61 23.5t61 -23.5t25.5 -60.5q0 -43 -24.5 -64t-61.5 -21q-36 0 -61.5 22.5t-25.5 62.5z" />
<glyph unicode="k" horiz-adv-x="1125" d="M173 0v1549h125v-947h246l372 460h146l-418 -522l473 -540h-148l-431 485h-240v-485h-125z" />
<glyph unicode="l" horiz-adv-x="483" d="M179 0v1615h127v-1615h-127z" />
<glyph unicode="m" horiz-adv-x="1969" d="M173 0v1062h112v-177q60 77 159.5 139t228.5 62q122 0 211 -54.5t133 -151.5q180 205 403 206q182 0 286.5 -116t104.5 -299v-671h-123v673q0 133 -76.5 215.5t-204.5 82.5q-201 0 -348 -205q7 -47 7 -95v-671h-126v673q0 133 -76.5 215.5t-204.5 82.5q-211 0 -361 -226 v-745h-125z" />
<glyph unicode="n" horiz-adv-x="1286" d="M173 0v1062h112v-190q62 86 170.5 150t241.5 64q188 0 309.5 -118.5t121.5 -313.5v-654h-126v639q0 159 -88.5 245.5t-229.5 86.5q-127 0 -225 -71t-161 -172v-728h-125z" />
<glyph unicode="o" horiz-adv-x="1315" d="M99 530.5q0 256.5 165 406t393 149.5q230 0 394.5 -149.5t164.5 -406t-164.5 -406t-394.5 -149.5q-228 0 -393 149.5t-165 406zM226 530.5q0 -201.5 124.5 -318.5t308 -117t308 117t124.5 318.5t-124.5 319t-308 117.5t-308 -117.5t-124.5 -319z" />
<glyph unicode="p" horiz-adv-x="1366" d="M173 -487v1549h112v-220q169 243 454 244q228 0 378.5 -156t150.5 -399.5t-150.5 -399.5t-378.5 -156q-148 0 -261 65.5t-180 164.5v-692h-125zM296 387q49 -127 164 -211.5t264 -84.5q181 0 299.5 119.5t118.5 320.5q0 199 -119.5 319.5t-298.5 120.5 q-148 0 -263.5 -85.5t-164.5 -210.5v-288z" />
<glyph unicode="q" horiz-adv-x="1366" d="M99 530.5q0 243.5 151 399.5t379 156q289 0 452 -244v220h113v-1549h-124v692q-66 -99 -178.5 -164.5t-262.5 -65.5q-228 0 -379 156t-151 399.5zM226 531q0 -201 118 -320.5t300 -119.5q148 0 263 85t163 211v288q-48 126 -163 211t-263 85q-180 0 -299 -120.5 t-119 -319.5z" />
<glyph unicode="r" horiz-adv-x="781" d="M173 0v1062h112v-246q61 123 189 200q115 69 248 69q16 0 32 -1v-126q-21 2 -42 2q-142 0 -248 -78q-122 -90 -166 -234v-648h-125z" />
<glyph unicode="s" horiz-adv-x="1019" d="M108 80v123q168 -112 403 -112q301 0 301 168q0 76 -72.5 123t-176 75t-206 61t-175 102.5t-72.5 175.5q0 146 115 218t275 72q208 0 369 -90v-120q-152 97 -360 97q-113 0 -192.5 -43t-79.5 -132q0 -75 71.5 -123.5t176 -76.5t207 -59.5t174 -100.5t71.5 -174 q0 -148 -119 -218.5t-301 -70.5q-251 0 -409 105z" />
<glyph unicode="t" horiz-adv-x="868" d="M36 944v118h198v338l125 33v-371h443v-118h-443v-615q0 -124 59 -179t186 -55q120 0 232 49v-115q-118 -51 -266 -51q-156 0 -246 84t-90 246v636h-198z" />
<glyph unicode="u" horiz-adv-x="1286" d="M159 407v655h126v-640q0 -162 84.5 -246.5t232.5 -84.5q128 0 226.5 70.5t159.5 172.5v728h127v-1062h-115v190q-61 -86 -168.5 -150.5t-242.5 -64.5q-195 0 -312.5 118t-117.5 314z" />
<glyph unicode="v" horiz-adv-x="1171" d="M38 1062h139l409 -921l408 921h139l-481 -1062h-133z" />
<glyph unicode="w" horiz-adv-x="1771" d="M51 1062h133l316 -921l327 914h115l328 -914l318 921h132l-382 -1062h-135l-318 885l-319 -885h-133z" />
<glyph unicode="x" horiz-adv-x="1078" d="M33 0l436 546l-414 516h146l339 -427l338 427h146l-412 -516l435 -546h-146l-361 456l-361 -456h-146z" />
<glyph unicode="y" horiz-adv-x="1184" d="M31 1062h133l451 -923l396 923h133l-538 -1237q-148 -336 -380 -336q-53 0 -114 13v111q49 -13 99 -14q92 0 162 66.5t127 205.5l53 125z" />
<glyph unicode="z" horiz-adv-x="1007" d="M76 0v110l676 841h-648v111h797v-111l-675 -841h709v-110h-859z" />
<glyph unicode="{" horiz-adv-x="638" d="M64 719v110q71 -6 129.5 44.5t58.5 152.5v534q0 135 75.5 199t223.5 33v-112q-93 13 -131 -29.5t-38 -141.5v-492q0 -105 -39.5 -167.5t-99.5 -75.5q59 -13 99 -75t40 -168v-491q0 -99 38 -142.5t131 -30.5v-110q-148 -29 -223.5 34t-75.5 198v533q0 101 -57.5 152.5 t-130.5 44.5z" />
<glyph unicode="|" horiz-adv-x="452" d="M162 -221v2013h130v-2013h-130z" />
<glyph unicode="}" horiz-adv-x="638" d="M89 -133q92 -13 129 29t37 144v491q0 106 39.5 168t101.5 75q-61 13 -101 75.5t-40 167.5v492q0 101 -37 143.5t-129 27.5v112q148 31 223 -33t75 -199v-534q0 -102 58.5 -152.5t129.5 -44.5v-110q-74 7 -131 -44t-57 -153v-533q0 -135 -75 -198t-223 -34v110z" />
<glyph unicode="~" horiz-adv-x="1293" d="M164 631q-2 103 56.5 164t155.5 61q84 0 270 -67.5t268 -67.5q108 0 106 108h119q5 -103 -54 -165t-161 -62q-79 0 -268 68.5t-267 68.5q-51 0 -79.5 -29t-26.5 -79h-119z" />
<glyph unicode="&#xa1;" horiz-adv-x="446" d="M137 1002q0 40 24.5 62t62 22t62 -22t24.5 -62t-24.5 -62t-62 -22t-62 22t-24.5 62zM157 -480l11 1130h111l8 -1130h-130z" />
<glyph unicode="&#xa2;" horiz-adv-x="1125" d="M106 524q0 251 148.5 395.5t360.5 164.5v243h111v-243q162 -6 274 -84v-122q-108 82 -274 93v-878q162 11 285 84v-126q-126 -62 -285 -73v-244h-111v244q-213 16 -361 156t-148 390zM232 526q0 -192 108.5 -302t274.5 -129v872q-165 -25 -274 -135.5t-109 -305.5z" />
<glyph unicode="&#xa3;" horiz-adv-x="1332" d="M84 0v126h78q76 0 118.5 53t42.5 144v361h-184v121h184v215q0 254 143.5 381t354.5 127q179 0 323 -84v-125q-142 88 -308 88q-164 0 -272 -96.5t-108 -293.5v-212h521v-121h-521v-361q0 -150 -80 -197h865v-126h-1157z" />
<glyph unicode="&#xa4;" horiz-adv-x="1273" d="M154 376l138 137q-91 108 -91 261t91 261l-138 137l89 88l141 -141q111 73 253 73q140 0 254 -73l141 141l89 -88l-139 -137q90 -108 90 -261t-90 -261l139 -137l-89 -89l-141 142q-114 -74 -254 -73q-142 -1 -253 73l-141 -142zM325 774.5q0 -137.5 87.5 -219.5 t222.5 -82t223.5 82t88.5 219.5t-88.5 219t-223.5 81.5t-222.5 -81.5t-87.5 -219z" />
<glyph unicode="&#xa5;" horiz-adv-x="1439" d="M73 1504h144l502 -780l501 780h145l-518 -803h330v-110h-392v-164h392v-111h-392v-316h-133v316h-388v111h388v164h-388v110h327z" />
<glyph unicode="&#xa6;" horiz-adv-x="492" d="M181 -221v776h131v-776h-131zM181 1015v777h131v-777h-131z" />
<glyph unicode="&#xa7;" horiz-adv-x="1087" d="M129 747q0 169 198 291q-177 84 -177 247q0 142 114 214.5t280 72.5q195 0 349 -88v-117q-152 95 -342 95q-115 0 -195 -45t-80 -130q0 -37 19 -68t41.5 -51t73 -41t80 -29.5t99.5 -29.5q6 -2 10.5 -3t10 -2t9.5 -4q86 -24 134.5 -42.5t108.5 -54t89 -89.5t29 -128 q0 -164 -208 -287q177 -83 177 -250q0 -141 -118.5 -212.5t-296.5 -71.5q-228 0 -384 103v117q74 -51 179.5 -79.5t198.5 -28.5q294 0 295 169q0 34 -10.5 60.5t-38 48.5t-46 35.5t-70.5 31.5t-73 24t-85 26q-71 19 -110.5 32.5t-96 40.5t-87.5 57t-54 78.5t-23 107.5z M249 766q0 -93 72.5 -138.5t216.5 -85.5l121 -35q82 31 139.5 90.5t57.5 130.5q0 40 -15.5 72t-37.5 53t-64 40t-73 29.5t-86 26.5q-110 34 -137 42q-80 -29 -137 -92t-57 -133z" />
<glyph unicode="&#xa8;" horiz-adv-x="642" d="M9 1849q0 38 27.5 65.5t65 27.5t64 -27.5t26.5 -65.5t-26.5 -64.5t-64 -26.5t-65 26.5t-27.5 64.5zM454 1849q0 38 27.5 65.5t65 27.5t64 -27.5t26.5 -65.5t-26.5 -64.5t-64 -26.5t-65 26.5t-27.5 64.5z" />
<glyph unicode="&#xa9;" horiz-adv-x="1881" d="M112 774q0 190 74.5 347.5t195 252.5t265.5 146.5t295.5 51.5t294 -51.5t264 -146.5t194.5 -252.5t74 -347.5t-74 -347t-194.5 -252t-264 -147.5t-294 -52.5t-295.5 52.5t-265.5 147.5t-195 252t-74.5 347zM166 774.5q0 -236.5 118.5 -411.5t290.5 -255.5t367 -80.5 q141 0 277 47.5t248 138t180.5 236.5t68.5 325.5t-68.5 325t-180.5 236.5t-247.5 138.5t-277.5 47.5q-195 0 -367 -80.5t-290.5 -255.5t-118.5 -411.5zM531 756q0 226 139.5 344t325.5 118q154 0 272 -74v-97q-112 75 -255 74q-154 0 -264 -88.5t-110 -271.5 q0 -170 103 -252t254 -82q143 0 272 73v-95q-137 -76 -297 -76q-175 0 -307.5 111t-132.5 316z" />
<glyph unicode="&#xab;" horiz-adv-x="1021" d="M106 517v27l268 378h135l-277 -391l277 -392h-135zM487 517v27l267 378h135l-277 -391l277 -392h-135z" />
<glyph unicode="&#xac;" horiz-adv-x="1279" d="M146 942v120h966v-433h-124v313h-842z" />
<glyph unicode="&#xad;" horiz-adv-x="1072" d="M148 485v119h776v-119h-776z" />
<glyph unicode="&#xae;" horiz-adv-x="1881" d="M112 774q0 190 74.5 347.5t195 252.5t265.5 146.5t295.5 51.5t294 -51.5t264 -146.5t194.5 -252.5t74 -347.5t-74 -347t-194.5 -252t-264 -147.5t-294 -52.5t-295.5 52.5t-265.5 147.5t-195 252t-74.5 347zM166 774.5q0 -236.5 118.5 -411.5t290.5 -255.5t367 -80.5 q141 0 277 47.5t248 138t180.5 236.5t68.5 325.5t-68.5 325t-180.5 236.5t-247.5 138.5t-277.5 47.5q-195 0 -367 -80.5t-290.5 -255.5t-118.5 -411.5zM639 336v871h357q55 0 107 -11.5t103.5 -39.5t84 -84.5t32.5 -136.5q0 -196 -198 -247l251 -352h-111l-237 339 q-15 -2 -46 -2h-248v-337h-95zM734 766h252q46 0 78.5 4t75 18t65.5 52t23 95q0 180 -242 180h-252v-349z" />
<glyph unicode="&#xaf;" horiz-adv-x="735" d="M59 1758v116h620v-116h-620z" />
<glyph unicode="&#xb0;" horiz-adv-x="868" d="M102 1256q0 146 98 235.5t235 89.5t235 -88.5t98 -236.5t-98 -236.5t-235 -88.5t-235 88.5t-98 236.5zM197 1256.5q0 -106.5 68.5 -169.5t170.5 -63t169.5 63t67.5 169q0 104 -67.5 167t-169.5 63t-170.5 -61.5t-68.5 -168z" />
<glyph unicode="&#xb1;" horiz-adv-x="1273" d="M154 0v120h967v-120h-967zM154 766v119h426v422h119v-422h422v-119h-422v-426h-119v426h-426z" />
<glyph unicode="&#xb4;" horiz-adv-x="390" d="M59 1710l200 314h157l-219 -314h-138z" />
<glyph unicode="&#xb6;" horiz-adv-x="1366" d="M76 1090.5q0 214.5 129 336.5t354 122h625v-2036h-133v1909h-359v-1909h-133v1122q-225 0 -354 120.5t-129 335z" />
<glyph unicode="&#xb7;" horiz-adv-x="470" d="M148 528.5q0 39.5 25.5 63t63 23.5t63 -23.5t25.5 -63t-25.5 -62.5t-63 -23t-63 23t-25.5 62.5z" />
<glyph unicode="&#xb8;" horiz-adv-x="470" d="M2 -359q91 -50 203 -50q89 0 135.5 26.5t43.5 70.5q0 55 -85.5 73t-178.5 -6l57 245h110l-42 -164q106 13 177.5 -27.5t73.5 -124.5q2 -93 -72 -144t-205 -51q-117 0 -217 44v108z" />
<glyph unicode="&#xbb;" horiz-adv-x="1019" d="M133 139l276 392l-276 391h135l268 -378v-27l-268 -378h-135zM511 139l276 392l-276 391h135l268 -378v-27l-268 -378h-135z" />
<glyph unicode="&#xbc;" horiz-adv-x="2032" d="M120 602v103h205v682l-192 -70v103l219 84h81v-799h164v-103h-477zM418 -27l1011 1599h61l-1010 -1599h-62zM1172 201v97l493 605h120v-600h170v-102h-170v-201h-109v201h-504zM1309 303h369v451z" />
<glyph unicode="&#xbd;" horiz-adv-x="1937" d="M110 602v103h206v682l-192 -70v103l218 84h82v-799h165v-103h-479zM409 -27l1011 1599h62l-1011 -1599h-62zM1207 0v53q0 184 173 306q34 24 129 79q137 85 171 124q45 53 45 117q0 137 -205 137q-144 0 -281 -95v111q126 86 289 86q140 0 224 -63t84 -178 q0 -101 -67.5 -173.5t-187.5 -142.5q-9 -5 -40.5 -25t-42 -25t-38 -23t-36 -27t-29.5 -25.5t-29 -29t-19 -30t-15.5 -35t-4.5 -37.5h515v-104h-635z" />
<glyph unicode="&#xbe;" horiz-adv-x="2149" d="M122 654v110q124 -66 305 -67q232 0 232 166q0 162 -218 161h-140v104h126q95 0 146 39.5t51 106.5q0 72 -56.5 112.5t-158.5 40.5q-141 0 -272 -69v109q129 61 285 61q140 0 224 -67.5t84 -177.5q0 -68 -38 -123.5t-97 -75.5q171 -53 171 -228q0 -126 -93 -193.5 t-238 -67.5q-181 0 -313 59zM572 -27l1011 1599h63l-1011 -1599h-63zM1290 201v97l493 605h119v-600h171v-102h-171v-201h-108v201h-504zM1427 303h369v451z" />
<glyph unicode="&#xbf;" horiz-adv-x="1061" d="M73 -137q0 86 44.5 174.5t106 159.5t123.5 140.5t106.5 144.5t44.5 147h126q0 -80 -43 -162.5t-105 -152t-123 -138t-104.5 -148t-43.5 -154.5q0 -127 100 -189.5t277 -62.5q203 0 406 119v-123q-199 -122 -426 -122q-217 0 -353 96t-136 271zM471 1000q0 42 25.5 64 t63 22t63 -22t25.5 -64q0 -38 -25.5 -61t-63 -23t-63 23t-25.5 61z" />
<glyph unicode="&#xc0;" horiz-adv-x="1576" d="M25 0l690 1549h148l688 -1549h-142l-183 416h-874l-186 -416h-141zM403 540h769l-364 825q-7 17 -21 49q-13 -32 -19 -49zM546 2024h157l200 -314h-139z" />
<glyph unicode="&#xc1;" horiz-adv-x="1576" d="M25 0l690 1549h148l688 -1549h-142l-183 416h-874l-186 -416h-141zM403 540h769l-364 825q-7 17 -21 49q-13 -32 -19 -49zM665 1710l200 314h157l-220 -314h-137z" />
<glyph unicode="&#xc2;" horiz-adv-x="1576" d="M25 0l690 1549h148l688 -1549h-142l-183 416h-874l-186 -416h-141zM403 540h769l-364 825q-7 17 -21 49q-13 -32 -19 -49zM449 1712l285 303h113l288 -303h-144l-199 208l-199 -208h-144z" />
<glyph unicode="&#xc3;" horiz-adv-x="1576" d="M25 0l690 1549h148l688 -1549h-142l-183 416h-874l-186 -416h-141zM403 540h769l-364 825q-7 17 -21 49q-13 -32 -19 -49zM443 1723q-13 92 33 149t121 57q68 0 190 -53t157 -53q82 0 76 93h111q13 -95 -33.5 -149.5t-126.5 -54.5q-71 0 -190.5 53t-154.5 53 q-40 0 -58.5 -26.5t-14.5 -68.5h-110z" />
<glyph unicode="&#xc4;" horiz-adv-x="1576" d="M25 0l690 1549h148l688 -1549h-142l-183 416h-874l-186 -416h-141zM403 540h769l-364 825q-7 17 -21 49q-13 -32 -19 -49zM469 1849q0 38 27.5 65.5t65 27.5t64 -27.5t26.5 -65.5t-26.5 -64.5t-64 -26.5t-65 26.5t-27.5 64.5zM914 1849q0 38 27.5 65.5t65 27.5t64 -27.5 t26.5 -65.5t-26.5 -64.5t-64 -26.5t-65 26.5t-27.5 64.5z" />
<glyph unicode="&#xc5;" horiz-adv-x="1576" d="M25 0l690 1549h148l688 -1549h-142l-183 416h-874l-186 -416h-141zM403 540h769l-364 825q-7 17 -21 49q-13 -32 -19 -49zM555 1878q0 95 67.5 154.5t160.5 59.5q91 0 158.5 -59.5t67.5 -154.5q0 -97 -66.5 -158t-159.5 -61t-160.5 61t-67.5 158zM652 1876q0 -59 39 -94 t92 -35t92 34t39 95q0 57 -39 92t-92 35t-92 -35t-39 -92z" />
<glyph unicode="&#xc6;" horiz-adv-x="2193" d="M-31 0l1082 1549h1015v-127h-832v-580h765v-125h-765v-591h845v-126h-975v420h-693l-297 -420h-145zM489 540h615v872z" />
<glyph unicode="&#xc7;" horiz-adv-x="1450" d="M110 758q0 195 69.5 354.5t185 258t257.5 150t294 51.5q243 0 433 -103v-133q-175 112 -414 112q-130 0 -250.5 -42.5t-221 -124.5t-160.5 -217t-60 -306q0 -162 61 -291t161.5 -207.5t223.5 -119.5t253 -41q248 1 423 114v-131q-173 -93 -394 -107l-36 -139 q106 13 176.5 -27.5t72.5 -124.5q2 -93 -72 -144t-205 -51q-118 0 -217 44v108q91 -50 203 -50q89 0 135.5 26.5t46.5 70.5q-3 55 -88.5 73t-176.5 -6l51 223q-144 9 -275.5 63t-239 149t-172 242.5t-64.5 325.5z" />
<glyph unicode="&#xc8;" horiz-adv-x="1372" d="M215 0v1549h1028v-127h-898v-580h832v-125h-832v-591h913v-126h-1043zM500 2024h157l199 -314h-139z" />
<glyph unicode="&#xc9;" horiz-adv-x="1372" d="M215 0v1549h1028v-127h-898v-580h832v-125h-832v-591h913v-126h-1043zM619 1710l200 314h156l-219 -314h-137z" />
<glyph unicode="&#xca;" horiz-adv-x="1372" d="M215 0v1549h1028v-127h-898v-580h832v-125h-832v-591h913v-126h-1043zM403 1712l285 303h112l289 -303h-145l-199 208l-199 -208h-143z" />
<glyph unicode="&#xcb;" horiz-adv-x="1372" d="M215 0v1549h1028v-127h-898v-580h832v-125h-832v-591h913v-126h-1043zM422 1849q0 38 27.5 65.5t65.5 27.5t64.5 -27.5t26.5 -65.5t-26.5 -64.5t-64.5 -26.5t-65.5 26.5t-27.5 64.5zM867 1849q0 38 27.5 65.5t65.5 27.5t64.5 -27.5t26.5 -65.5t-26.5 -64.5t-64.5 -26.5 t-65.5 26.5t-27.5 64.5z" />
<glyph unicode="&#xcc;" horiz-adv-x="559" d="M44 2024h157l200 -314h-140zM215 0v1549h130v-1549h-130z" />
<glyph unicode="&#xcd;" horiz-adv-x="559" d="M164 1710l199 314h156l-218 -314h-137zM215 0v1549h130v-1549h-130z" />
<glyph unicode="&#xce;" horiz-adv-x="559" d="M-53 1712l285 303h113l288 -303h-144l-200 208l-198 -208h-144zM215 0v1549h130v-1549h-130z" />
<glyph unicode="&#xcf;" horiz-adv-x="559" d="M-33 1849q0 38 27.5 65.5t65 27.5t64 -27.5t26.5 -65.5t-26.5 -64.5t-64 -26.5t-65 26.5t-27.5 64.5zM215 0v1549h130v-1549h-130zM411 1849q0 38 28 65.5t65.5 27.5t64 -27.5t26.5 -65.5t-26.5 -64.5t-64 -26.5t-65.5 26.5t-28 64.5z" />
<glyph unicode="&#xd0;" horiz-adv-x="1631" d="M42 712v120h179v717h480q401 0 611 -213t210 -562.5t-210 -561.5t-611 -212h-480v712h-179zM354 126h349q336 0 512 173.5t176 474.5t-175.5 474.5t-512.5 173.5h-349v-590h495v-120h-495v-586z" />
<glyph unicode="&#xd1;" horiz-adv-x="1693" d="M215 0v1549h119l1015 -1325v132v1193h131v-1549h-119l-1016 1327v-133v-1194h-130zM507 1723q-13 92 33 149t121 57q68 0 190 -53t158 -53q82 0 75 93h110q13 -95 -33 -149.5t-126 -54.5q-72 0 -190.5 53t-154.5 53q-40 0 -59 -26.5t-14 -68.5h-110z" />
<glyph unicode="&#xd2;" d="M106 774q0 150 51 290.5t148.5 255.5t254.5 183.5t351.5 68.5t351.5 -68.5t254.5 -183.5t148 -255.5t50.5 -290.5t-50.5 -291t-148 -256t-254.5 -183.5t-351.5 -68.5t-351.5 68.5t-254.5 183.5t-148.5 256t-51 291zM239 774q0 -175 70.5 -324t227.5 -250t374 -101 t374 101t227.5 250t70.5 324t-70.5 324t-227.5 249.5t-374 100.5t-374 -100.5t-227.5 -249.5t-70.5 -324zM673 2024h156l199 -314h-139z" />
<glyph unicode="&#xd3;" d="M106 774q0 150 51 290.5t148.5 255.5t254.5 183.5t351.5 68.5t351.5 -68.5t254.5 -183.5t148 -255.5t50.5 -290.5t-50.5 -291t-148 -256t-254.5 -183.5t-351.5 -68.5t-351.5 68.5t-254.5 183.5t-148.5 256t-51 291zM239 774q0 -175 70.5 -324t227.5 -250t374 -101 t374 101t227.5 250t70.5 324t-70.5 324t-227.5 249.5t-374 100.5t-374 -100.5t-227.5 -249.5t-70.5 -324zM792 1710l199 314h157l-219 -314h-137z" />
<glyph unicode="&#xd4;" d="M106 774q0 150 51 290.5t148.5 255.5t254.5 183.5t351.5 68.5t351.5 -68.5t254.5 -183.5t148 -255.5t50.5 -290.5t-50.5 -291t-148 -256t-254.5 -183.5t-351.5 -68.5t-351.5 68.5t-254.5 183.5t-148.5 256t-51 291zM239 774q0 -175 70.5 -324t227.5 -250t374 -101 t374 101t227.5 250t70.5 324t-70.5 324t-227.5 249.5t-374 100.5t-374 -100.5t-227.5 -249.5t-70.5 -324zM575 1712l286 303h112l287 -303h-143l-199 208l-199 -208h-144z" />
<glyph unicode="&#xd5;" d="M106 774q0 150 51 290.5t148.5 255.5t254.5 183.5t351.5 68.5t351.5 -68.5t254.5 -183.5t148 -255.5t50.5 -290.5t-50.5 -291t-148 -256t-254.5 -183.5t-351.5 -68.5t-351.5 68.5t-254.5 183.5t-148.5 256t-51 291zM239 774q0 -175 70.5 -324t227.5 -250t374 -101 t374 101t227.5 250t70.5 324t-70.5 324t-227.5 249.5t-374 100.5t-374 -100.5t-227.5 -249.5t-70.5 -324zM568 1723q-13 92 33.5 149t122.5 57q68 0 189.5 -53t156.5 -53q82 0 76 93h110q13 -95 -33 -149.5t-126 -54.5q-71 0 -190.5 53t-154.5 53q-40 0 -58.5 -26.5 t-14.5 -68.5h-111z" />
<glyph unicode="&#xd6;" d="M106 774q0 150 51 290.5t148.5 255.5t254.5 183.5t351.5 68.5t351.5 -68.5t254.5 -183.5t148 -255.5t50.5 -290.5t-50.5 -291t-148 -256t-254.5 -183.5t-351.5 -68.5t-351.5 68.5t-254.5 183.5t-148.5 256t-51 291zM239 774q0 -175 70.5 -324t227.5 -250t374 -101 t374 101t227.5 250t70.5 324t-70.5 324t-227.5 249.5t-374 100.5t-374 -100.5t-227.5 -249.5t-70.5 -324zM595 1849q0 38 27.5 65.5t65.5 27.5t64.5 -27.5t26.5 -65.5t-26.5 -64.5t-64.5 -26.5t-65.5 26.5t-27.5 64.5zM1040 1849q0 38 27.5 65.5t65 27.5t64.5 -27.5 t27 -65.5t-27 -64.5t-64.5 -26.5t-65 26.5t-27.5 64.5z" />
<glyph unicode="&#xd7;" horiz-adv-x="1011" d="M137 489l287 288l-287 287l80 82l290 -287l287 287l82 -82l-290 -287l290 -288l-82 -82l-287 290l-290 -290z" />
<glyph unicode="&#xd8;" d="M106 774q0 150 51 290.5t148.5 255.5t254.5 183.5t352 68.5q251 0 437 -112l144 195h126l-186 -255q137 -113 210 -279.5t73 -346.5q0 -150 -50.5 -291t-148 -256t-254.5 -183.5t-351 -68.5q-246 0 -432 111l-142 -192h-125l181 252q-139 110 -213.5 278.5t-74.5 349.5z M239 774q0 -152 58.5 -292t173.5 -233l803 1104q-154 95 -362 95q-218 0 -375 -100.5t-227.5 -249.5t-70.5 -324zM555 190q157 -91 357 -91q217 0 373.5 101t227 250t70.5 324q0 150 -57 288.5t-168 233.5z" />
<glyph unicode="&#xd9;" horiz-adv-x="1661" d="M197 553v996h130v-992q0 -458 505 -458q502 0 502 458v992h130v-996q0 -304 -174.5 -441t-457.5 -137q-135 0 -246 31.5t-200.5 95.5t-139 179t-49.5 272zM591 2024h156l200 -314h-139z" />
<glyph unicode="&#xda;" horiz-adv-x="1661" d="M197 553v996h130v-992q0 -458 505 -458q502 0 502 458v992h130v-996q0 -304 -174.5 -441t-457.5 -137q-135 0 -246 31.5t-200.5 95.5t-139 179t-49.5 272zM710 1710l199 314h157l-219 -314h-137z" />
<glyph unicode="&#xdb;" horiz-adv-x="1661" d="M197 553v996h130v-992q0 -458 505 -458q502 0 502 458v992h130v-996q0 -304 -174.5 -441t-457.5 -137q-135 0 -246 31.5t-200.5 95.5t-139 179t-49.5 272zM494 1712l285 303h112l288 -303h-144l-199 208l-199 -208h-143z" />
<glyph unicode="&#xdc;" horiz-adv-x="1661" d="M197 553v996h130v-992q0 -458 505 -458q502 0 502 458v992h130v-996q0 -304 -174.5 -441t-457.5 -137q-135 0 -246 31.5t-200.5 95.5t-139 179t-49.5 272zM513 1849q0 38 27.5 65.5t65.5 27.5t64.5 -27.5t26.5 -65.5t-26.5 -64.5t-64.5 -26.5t-65.5 26.5t-27.5 64.5z M958 1849q0 38 27.5 65.5t65.5 27.5t64.5 -27.5t26.5 -65.5t-26.5 -64.5t-64.5 -26.5t-65.5 26.5t-27.5 64.5z" />
<glyph unicode="&#xdd;" horiz-adv-x="1423" d="M38 1549h146l528 -825l529 825h146l-608 -945v-604h-133v604zM595 1710l199 314h157l-219 -314h-137z" />
<glyph unicode="&#xde;" horiz-adv-x="1448" d="M215 0v1549h130v-284h379q652 0 652 -491t-652 -491h-379v-283h-130zM348 407h382q513 0 513 367q0 203 -137 285.5t-376 82.5h-382v-735z" />
<glyph unicode="&#xdf;" horiz-adv-x="1308" d="M173 0v1106q0 219 127 342.5t342 123.5q196 3 303.5 -95.5t107.5 -224.5q0 -85 -42 -155.5t-83 -125.5t-41 -104q0 -40 35.5 -85t85 -89.5t99.5 -95.5t85.5 -121.5t35.5 -148.5q0 -173 -129.5 -262.5t-315.5 -89.5q-159 0 -281 61v110q120 -60 259 -60q148 0 245.5 61 t97.5 189q0 61 -36 122t-85.5 109t-100 93t-86 92.5t-35.5 92.5q0 61 42 122t84 127.5t42 144.5q0 93 -77.5 158t-209.5 65q-153 0 -248.5 -88.5t-95.5 -248.5v-1125h-125z" />
<glyph unicode="&#xe0;" horiz-adv-x="1198" d="M80 289q0 182 137 265t332 83q170 0 333 -46v70q0 141 -88.5 225.5t-249.5 84.5q-203 0 -380 -76v125q188 65 393 66q213 0 331.5 -115t118.5 -325v-454q0 -93 95 -93q35 0 82 15v-101q-60 -22 -116 -22q-168 0 -183 163q-167 -179 -436 -179q-152 0 -260.5 81 t-108.5 233zM208 296q0 -104 77.5 -158t187.5 -54q122 0 230.5 54t178.5 154v195q-168 44 -316 44q-150 0 -254 -56.5t-104 -178.5zM308 1537h156l199 -313h-139z" />
<glyph unicode="&#xe1;" horiz-adv-x="1198" d="M80 289q0 182 137 265t332 83q170 0 333 -46v70q0 141 -88.5 225.5t-249.5 84.5q-203 0 -380 -76v125q188 65 393 66q213 0 331.5 -115t118.5 -325v-454q0 -93 95 -93q35 0 82 15v-101q-60 -22 -116 -22q-168 0 -183 163q-167 -179 -436 -179q-152 0 -260.5 81 t-108.5 233zM208 296q0 -104 77.5 -158t187.5 -54q122 0 230.5 54t178.5 154v195q-168 44 -316 44q-150 0 -254 -56.5t-104 -178.5zM427 1224l199 313h157l-219 -313h-137z" />
<glyph unicode="&#xe2;" horiz-adv-x="1198" d="M80 289q0 182 137 265t332 83q170 0 333 -46v70q0 141 -88.5 225.5t-249.5 84.5q-203 0 -380 -76v125q188 65 393 66q213 0 331.5 -115t118.5 -325v-454q0 -93 95 -93q35 0 82 15v-101q-60 -22 -116 -22q-168 0 -183 163q-167 -179 -436 -179q-152 0 -260.5 81 t-108.5 233zM208 296q0 -104 77.5 -158t187.5 -54q122 0 230.5 54t178.5 154v195q-168 44 -316 44q-150 0 -254 -56.5t-104 -178.5zM211 1226l285 302h112l287 -302h-143l-199 207l-199 -207h-143z" />
<glyph unicode="&#xe3;" horiz-adv-x="1198" d="M80 289q0 182 137 265t332 83q170 0 333 -46v70q0 141 -88.5 225.5t-249.5 84.5q-203 0 -380 -76v125q188 65 393 66q213 0 331.5 -115t118.5 -325v-454q0 -93 95 -93q35 0 82 15v-101q-60 -22 -116 -22q-168 0 -183 163q-167 -179 -436 -179q-152 0 -260.5 81 t-108.5 233zM203 1237q-13 92 33.5 148.5t122.5 56.5q68 0 190 -53t156 -53q82 0 76 93h110q13 -95 -33 -149t-126 -54q-71 0 -190.5 53t-154.5 53q-40 0 -58.5 -26.5t-14.5 -68.5h-111zM208 296q0 -104 77.5 -158t187.5 -54q122 0 230.5 54t178.5 154v195q-168 44 -316 44 q-150 0 -254 -56.5t-104 -178.5z" />
<glyph unicode="&#xe4;" horiz-adv-x="1198" d="M80 289q0 182 137 265t332 83q170 0 333 -46v70q0 141 -88.5 225.5t-249.5 84.5q-203 0 -380 -76v125q188 65 393 66q213 0 331.5 -115t118.5 -325v-454q0 -93 95 -93q35 0 82 15v-101q-60 -22 -116 -22q-168 0 -183 163q-167 -179 -436 -179q-152 0 -260.5 81 t-108.5 233zM208 296q0 -104 77.5 -158t187.5 -54q122 0 230.5 54t178.5 154v195q-168 44 -316 44q-150 0 -254 -56.5t-104 -178.5zM230 1362.5q0 37.5 27.5 65.5t65.5 28t64.5 -28t26.5 -65.5t-26.5 -64t-64.5 -26.5t-65.5 26.5t-27.5 64zM675 1362.5q0 37.5 27.5 65.5 t65 28t64.5 -28t27 -65.5t-27 -64t-64.5 -26.5t-65 26.5t-27.5 64z" />
<glyph unicode="&#xe5;" horiz-adv-x="1198" d="M80 289q0 182 137 265t332 83q170 0 333 -46v70q0 141 -88.5 225.5t-249.5 84.5q-203 0 -380 -76v125q188 65 393 66q213 0 331.5 -115t118.5 -325v-454q0 -93 95 -93q35 0 82 15v-101q-60 -22 -116 -22q-168 0 -183 163q-167 -179 -436 -179q-152 0 -260.5 81 t-108.5 233zM208 296q0 -104 77.5 -158t187.5 -54q122 0 230.5 54t178.5 154v195q-168 44 -316 44q-150 0 -254 -56.5t-104 -178.5zM316 1391q0 95 67.5 155t160.5 60q91 0 158.5 -60t67.5 -155q0 -97 -66.5 -158t-159.5 -61t-160.5 61t-67.5 158zM414 1389 q0 -60 38.5 -94.5t91.5 -34.5t92 34.5t39 94.5q0 57 -39 92.5t-92 35.5t-91.5 -35.5t-38.5 -92.5z" />
<glyph unicode="&#xe6;" horiz-adv-x="2009" d="M80 289q0 182 139.5 265t344.5 83q186 0 348 -46v70q0 146 -92 228t-276 82q-203 0 -380 -76v125q188 65 393 66q365 0 439 -278q61 133 182.5 205.5t261.5 72.5q141 0 246.5 -56.5t155 -146t69.5 -200.5t-7 -221h-866q13 -183 147 -277t322 -94q185 0 333 86v-118 q-143 -84 -360 -84q-144 0 -270 58t-201 170q-205 -228 -547 -228q-162 0 -272 81t-110 233zM208 296q0 -104 79.5 -158t201.5 -54q290 0 469 201q-38 93 -44 202q-177 44 -334 44q-159 0 -265.5 -55.5t-106.5 -179.5zM1038 572h756q9 66 -7 133t-53 127.5t-114 99.5 t-180 39q-165 0 -279 -105t-123 -294z" />
<glyph unicode="&#xe7;" horiz-adv-x="1091" d="M99 524q0 186 87.5 317.5t213.5 188t273 56.5q194 0 321 -86v-122q-125 93 -306 93q-190 0 -326 -113t-136 -332q0 -211 131.5 -323t317.5 -112q184 0 329 86v-126q-132 -64 -301 -76l-36 -139q106 13 176.5 -27.5t72.5 -124.5q2 -93 -72 -144t-205 -51q-117 0 -217 44 v108q91 -50 204 -50q89 0 135.5 26.5t46.5 70.5q-2 55 -88.5 73t-177.5 -6l51 226q-209 17 -351.5 157.5t-142.5 385.5z" />
<glyph unicode="&#xe8;" horiz-adv-x="1211" d="M99 531q0 260 158.5 407.5t366.5 147.5q118 0 210.5 -36.5t149 -98.5t94 -141.5t40.5 -165t-10 -171.5h-882q11 -190 146 -286t329 -96q199 0 348 86v-124q-144 -78 -365 -78q-250 0 -417.5 142t-167.5 414zM226 584h772q15 140 -74.5 263.5t-290.5 123.5 q-164 0 -281.5 -102.5t-125.5 -284.5zM384 1537h158l199 -313h-139z" />
<glyph unicode="&#xe9;" horiz-adv-x="1211" d="M99 531q0 260 158.5 407.5t366.5 147.5q118 0 210.5 -36.5t149 -98.5t94 -141.5t40.5 -165t-10 -171.5h-882q11 -190 146 -286t329 -96q199 0 348 86v-124q-144 -78 -365 -78q-250 0 -417.5 142t-167.5 414zM226 584h772q15 140 -74.5 263.5t-290.5 123.5 q-164 0 -281.5 -102.5t-125.5 -284.5zM504 1224l199 313h158l-219 -313h-138z" />
<glyph unicode="&#xea;" horiz-adv-x="1211" d="M99 531q0 260 158.5 407.5t366.5 147.5q118 0 210.5 -36.5t149 -98.5t94 -141.5t40.5 -165t-10 -171.5h-882q11 -190 146 -286t329 -96q199 0 348 86v-124q-144 -78 -365 -78q-250 0 -417.5 142t-167.5 414zM226 584h772q15 140 -74.5 263.5t-290.5 123.5 q-164 0 -281.5 -102.5t-125.5 -284.5zM287 1226l285 302h114l287 -302h-144l-198 207l-200 -207h-144z" />
<glyph unicode="&#xeb;" horiz-adv-x="1211" d="M99 531q0 260 158.5 407.5t366.5 147.5q118 0 210.5 -36.5t149 -98.5t94 -141.5t40.5 -165t-10 -171.5h-882q11 -190 146 -286t329 -96q199 0 348 86v-124q-144 -78 -365 -78q-250 0 -417.5 142t-167.5 414zM226 584h772q15 140 -74.5 263.5t-290.5 123.5 q-164 0 -281.5 -102.5t-125.5 -284.5zM308 1362.5q0 37.5 27.5 65.5t65 28t64 -28t26.5 -65.5t-26.5 -64t-64 -26.5t-65 26.5t-27.5 64zM752 1362.5q0 37.5 28 65.5t65 28t63.5 -28t26.5 -65.5t-26.5 -64t-63.5 -26.5t-65 26.5t-28 64z" />
<glyph unicode="&#xec;" horiz-adv-x="483" d="M55 1537h142l168 -313h-122zM179 0v1062h127v-1062h-127z" />
<glyph unicode="&#xed;" horiz-adv-x="483" d="M122 1224l199 313h156l-218 -313h-137zM179 0v1062h127v-1062h-127z" />
<glyph unicode="&#xee;" horiz-adv-x="483" d="M-40 1226l228 281h113l227 -281h-134l-149 186l-148 -186h-137zM179 0v1062h127v-1062h-127z" />
<glyph unicode="&#xef;" horiz-adv-x="483" d="M-13 1362q0 33 25.5 59.5t58.5 26.5t58 -26.5t25 -59.5t-24 -58t-59 -25t-59.5 25t-24.5 58zM179 0v1062h127v-1062h-127zM327 1362q0 33 25.5 59.5t58.5 26.5q36 0 61.5 -26.5t25.5 -59.5t-25.5 -58t-61.5 -25q-33 0 -58.5 25t-25.5 58z" />
<glyph unicode="&#xf0;" horiz-adv-x="1313" d="M99 491q0 215 150 355t357 140q166 0 299 -81.5t176 -227.5q0 15 -4 51q-45 458 -440 625l-230 -230l-73 74l194 194q-148 38 -302 38v120q205 0 393 -67l189 188l72 -73l-161 -162q475 -230 475 -840q0 -292 -150.5 -456t-399.5 -164q-237 0 -391 142t-154 374zM226 491 q0 -179 115 -287.5t303 -108.5q175 0 279.5 95t133.5 259q-4 193 -128 306.5t-303 113.5q-172 0 -286 -104.5t-114 -273.5z" />
<glyph unicode="&#xf1;" horiz-adv-x="1286" d="M173 0v1062h112v-190q62 86 170.5 150t241.5 64q188 0 309.5 -118.5t121.5 -313.5v-654h-126v639q0 159 -88.5 245.5t-229.5 86.5q-127 0 -225 -71t-161 -172v-728h-125zM303 1237q-12 92 33.5 148.5t121.5 56.5q68 0 190 -53t157 -53q82 0 75 93h111q13 -95 -33 -149 t-126 -54q-72 0 -191 53t-154 53q-40 0 -59 -26.5t-14 -68.5h-111z" />
<glyph unicode="&#xf2;" horiz-adv-x="1315" d="M99 530.5q0 256.5 165 406t393 149.5q230 0 394.5 -149.5t164.5 -406t-164.5 -406t-394.5 -149.5q-228 0 -393 149.5t-165 406zM226 530.5q0 -201.5 124.5 -318.5t308 -117t308 117t124.5 318.5t-124.5 319t-308 117.5t-308 -117.5t-124.5 -319zM418 1530h157l199 -314 h-139z" />
<glyph unicode="&#xf3;" horiz-adv-x="1315" d="M99 530.5q0 256.5 165 406t393 149.5q230 0 394.5 -149.5t164.5 -406t-164.5 -406t-394.5 -149.5q-228 0 -393 149.5t-165 406zM226 530.5q0 -201.5 124.5 -318.5t308 -117t308 117t124.5 318.5t-124.5 319t-308 117.5t-308 -117.5t-124.5 -319zM538 1216l199 314h156 l-218 -314h-137z" />
<glyph unicode="&#xf4;" horiz-adv-x="1315" d="M99 530.5q0 256.5 165 406t393 149.5q230 0 394.5 -149.5t164.5 -406t-164.5 -406t-394.5 -149.5q-228 0 -393 149.5t-165 406zM226 530.5q0 -201.5 124.5 -318.5t308 -117t308 117t124.5 318.5t-124.5 319t-308 117.5t-308 -117.5t-124.5 -319zM321 1218l285 304h113 l288 -304h-144l-200 209l-199 -209h-143z" />
<glyph unicode="&#xf5;" horiz-adv-x="1315" d="M99 530.5q0 256.5 165 406t393 149.5q230 0 394.5 -149.5t164.5 -406t-164.5 -406t-394.5 -149.5q-228 0 -393 149.5t-165 406zM226 530.5q0 -201.5 124.5 -318.5t308 -117t308 117t124.5 318.5t-124.5 319t-308 117.5t-308 -117.5t-124.5 -319zM314 1230 q-13 93 33.5 149t121.5 56q68 0 190 -53t157 -53q83 0 75 93h111q13 -95 -33.5 -149.5t-126.5 -54.5q-71 0 -189.5 53.5t-154.5 53.5q-40 0 -59 -26.5t-15 -68.5h-110z" />
<glyph unicode="&#xf6;" horiz-adv-x="1315" d="M99 530.5q0 256.5 165 406t393 149.5q230 0 394.5 -149.5t164.5 -406t-164.5 -406t-394.5 -149.5q-228 0 -393 149.5t-165 406zM226 530.5q0 -201.5 124.5 -318.5t308 -117t308 117t124.5 318.5t-124.5 319t-308 117.5t-308 -117.5t-124.5 -319zM340 1356q0 37 28 64.5 t65.5 27.5t64 -27.5t26.5 -64.5t-26.5 -64t-64 -27t-65.5 27t-28 64zM785 1356q0 37 27.5 64.5t65.5 27.5t64.5 -27.5t26.5 -64.5t-26.5 -64t-64.5 -27t-65.5 27t-27.5 64z" />
<glyph unicode="&#xf7;" horiz-adv-x="1401" d="M171 715v119h1061v-119h-1061zM612 279q0 40 25.5 62t63.5 22t62 -22t24 -62q0 -42 -24 -64.5t-62 -22.5t-63.5 22.5t-25.5 64.5zM612 1268q0 40 25.5 61.5t63.5 21.5t62 -21.5t24 -61.5q0 -42 -24 -64t-62 -22t-63.5 22t-25.5 64z" />
<glyph unicode="&#xf8;" horiz-adv-x="1315" d="M99 531q0 257 165 406t393 149q145 0 267 -62l114 177h112l-148 -224q215 -154 214 -446q0 -257 -164.5 -406.5t-394.5 -149.5q-142 0 -270 63l-111 -169h-110l142 220q-209 152 -209 442zM226 531q0 -221 152 -341l478 734q-96 43 -197 43q-184 0 -308.5 -117.5 t-124.5 -318.5zM456 139q93 -44 201 -44q183 0 308.5 117t125.5 319q0 220 -156 345z" />
<glyph unicode="&#xf9;" horiz-adv-x="1286" d="M159 407v655h126v-640q0 -162 84.5 -246.5t232.5 -84.5q128 0 226.5 70.5t159.5 172.5v728h127v-1062h-115v190q-61 -86 -168.5 -150.5t-242.5 -64.5q-195 0 -312.5 118t-117.5 314zM405 1537h157l199 -313h-140z" />
<glyph unicode="&#xfa;" horiz-adv-x="1286" d="M159 407v655h126v-640q0 -162 84.5 -246.5t232.5 -84.5q128 0 226.5 70.5t159.5 172.5v728h127v-1062h-115v190q-61 -86 -168.5 -150.5t-242.5 -64.5q-195 0 -312.5 118t-117.5 314zM524 1224l200 313h156l-219 -313h-137z" />
<glyph unicode="&#xfb;" horiz-adv-x="1286" d="M159 407v655h126v-640q0 -162 84.5 -246.5t232.5 -84.5q128 0 226.5 70.5t159.5 172.5v728h127v-1062h-115v190q-61 -86 -168.5 -150.5t-242.5 -64.5q-195 0 -312.5 118t-117.5 314zM308 1226l285 302h112l289 -302h-145l-199 207l-199 -207h-143z" />
<glyph unicode="&#xfc;" horiz-adv-x="1286" d="M159 407v655h126v-640q0 -162 84.5 -246.5t232.5 -84.5q128 0 226.5 70.5t159.5 172.5v728h127v-1062h-115v190q-61 -86 -168.5 -150.5t-242.5 -64.5q-195 0 -312.5 118t-117.5 314zM327 1362.5q0 37.5 27.5 65.5t65.5 28t64.5 -28t26.5 -65.5t-26.5 -64t-64.5 -26.5 t-65.5 26.5t-27.5 64zM772 1362.5q0 37.5 27.5 65.5t65.5 28t64.5 -28t26.5 -65.5t-26.5 -64t-64.5 -26.5t-65.5 26.5t-27.5 64z" />
<glyph unicode="&#xfd;" horiz-adv-x="1184" d="M31 1062h133l451 -923l396 923h133l-538 -1237q-148 -336 -380 -336q-53 0 -114 13v111q49 -13 99 -14q92 0 162 66.5t127 205.5l53 125zM458 1224l199 313h157l-219 -313h-137z" />
<glyph unicode="&#xfe;" horiz-adv-x="1366" d="M173 -487v2036h125v-693q66 100 179.5 165t261.5 65q228 0 378.5 -156t150.5 -399.5t-150.5 -399.5t-378.5 -156q-148 0 -261 65.5t-180 164.5v-692h-125zM296 387q49 -127 164 -211.5t264 -84.5q181 0 299.5 119.5t118.5 320.5q0 199 -119.5 319.5t-298.5 120.5 q-148 0 -263.5 -85.5t-164.5 -210.5v-288z" />
<glyph unicode="&#xff;" horiz-adv-x="1184" d="M31 1062h133l451 -923l396 923h133l-538 -1237q-148 -336 -380 -336q-53 0 -114 13v111q49 -13 99 -14q92 0 162 66.5t127 205.5l53 125zM261 1362.5q0 37.5 27.5 65.5t65 28t64.5 -28t27 -65.5t-27 -64t-64.5 -26.5t-65 26.5t-27.5 64zM705 1362.5q0 37.5 28 65.5 t65.5 28t64 -28t26.5 -65.5t-26.5 -64t-64 -26.5t-65.5 26.5t-28 64z" />
<glyph unicode="&#x152;" horiz-adv-x="2271" d="M106 774q0 150 51 290.5t148.5 255.5t254.5 183.5t352 68.5q162 0 270 -23h962v-127h-833v-580h766v-125h-766v-591h846v-126h-975q-108 -25 -270 -25q-195 0 -352 68.5t-254.5 183.5t-148.5 256t-51 291zM243 774.5q0 -280.5 181.5 -478t495.5 -197.5q144 0 264 32v1287 q-120 31 -264 30q-314 0 -495.5 -196.5t-181.5 -477z" />
<glyph unicode="&#x153;" horiz-adv-x="2182" d="M99 530.5q0 256.5 162.5 406t390.5 149.5q167 0 298 -82t194 -230q59 148 185.5 230t272.5 82q114 0 207 -37.5t148.5 -99.5t91.5 -142.5t39.5 -168t-9.5 -176.5h-872q13 -183 148 -277t321 -94q188 0 337 86v-118q-144 -84 -363 -84q-168 0 -307.5 79t-198.5 233 q-64 -150 -196 -231t-296 -81q-228 0 -390.5 149.5t-162.5 406zM226 530.5q0 -201.5 121.5 -318.5t306.5 -117q184 0 305.5 117t121.5 318.5t-121.5 319t-305.5 117.5q-185 0 -306.5 -117.5t-121.5 -319zM1207 572h762q15 146 -72.5 272.5t-288.5 126.5q-162 0 -277 -105 t-124 -294z" />
<glyph unicode="&#x178;" horiz-adv-x="1423" d="M38 1549h146l528 -825l529 825h146l-608 -945v-604h-133v604zM399 1849q0 38 27.5 65.5t64.5 27.5t64 -27.5t27 -65.5t-27 -64.5t-64 -26.5t-64.5 26.5t-27.5 64.5zM842 1849q0 38 27.5 65.5t65.5 27.5t64.5 -27.5t26.5 -65.5t-26.5 -64.5t-64.5 -26.5t-65.5 26.5 t-27.5 64.5z" />
<glyph unicode="&#x2c6;" horiz-adv-x="660" d="M-11 1712l285 303h113l288 -303h-144l-199 208l-199 -208h-144z" />
<glyph unicode="&#x2dc;" horiz-adv-x="735" d="M25 1723q-13 92 33 149t121 57q68 0 190 -53t157 -53q82 0 76 93h110q13 -95 -33 -149.5t-126 -54.5q-71 0 -190.5 53t-154.5 53q-40 0 -58.5 -26.5t-14.5 -68.5h-110z" />
<glyph unicode="&#x2000;" horiz-adv-x="1046" />
<glyph unicode="&#x2001;" horiz-adv-x="2092" />
<glyph unicode="&#x2002;" horiz-adv-x="1046" />
<glyph unicode="&#x2003;" horiz-adv-x="2092" />
<glyph unicode="&#x2004;" horiz-adv-x="697" />
<glyph unicode="&#x2005;" horiz-adv-x="523" />
<glyph unicode="&#x2006;" horiz-adv-x="348" />
<glyph unicode="&#x2007;" horiz-adv-x="348" />
<glyph unicode="&#x2008;" horiz-adv-x="261" />
<glyph unicode="&#x2009;" horiz-adv-x="418" />
<glyph unicode="&#x200a;" horiz-adv-x="116" />
<glyph unicode="&#x2010;" horiz-adv-x="1072" d="M148 485v119h776v-119h-776z" />
<glyph unicode="&#x2011;" horiz-adv-x="1072" d="M148 485v119h776v-119h-776z" />
<glyph unicode="&#x2012;" horiz-adv-x="1072" d="M148 485v119h776v-119h-776z" />
<glyph unicode="&#x2013;" horiz-adv-x="1262" d="M148 485v119h967v-119h-967z" />
<glyph unicode="&#x2014;" horiz-adv-x="1674" d="M148 485v119h1378v-119h-1378z" />
<glyph unicode="&#x2018;" horiz-adv-x="452" d="M110 1055l147 494h104l-118 -494h-133z" />
<glyph unicode="&#x2019;" horiz-adv-x="443" d="M114 1055l118 494h133l-146 -494h-105z" />
<glyph unicode="&#x201a;" horiz-adv-x="475" d="M64 -325l117 496h133l-146 -496h-104z" />
<glyph unicode="&#x201c;" horiz-adv-x="749" d="M110 1055l147 494h104l-118 -494h-133zM407 1055l146 494h104l-117 -494h-133z" />
<glyph unicode="&#x201d;" horiz-adv-x="740" d="M114 1055l118 494h133l-146 -494h-105zM411 1055l117 494h133l-146 -494h-104z" />
<glyph unicode="&#x201e;" horiz-adv-x="771" d="M64 -325l117 496h133l-146 -496h-104zM361 -325l116 496h133l-146 -496h-103z" />
<glyph unicode="&#x2022;" horiz-adv-x="689" d="M201 774q0 64 41 102t100 38q62 0 103.5 -37t41.5 -103.5t-41 -102.5t-104 -36q-59 0 -100 37.5t-41 101.5z" />
<glyph unicode="&#x2026;" horiz-adv-x="1182" d="M139 68.5q0 39.5 25.5 62.5t63.5 23t63 -23t25 -62.5t-25 -62.5t-63 -23t-63.5 23t-25.5 62.5zM504 68.5q0 39.5 25.5 62.5t63.5 23t63 -23t25 -62.5t-25 -62.5t-63 -23t-63.5 23t-25.5 62.5zM867 68.5q0 39.5 25.5 62.5t63.5 23t63 -23t25 -62.5t-25 -62.5t-63 -23 t-63.5 23t-25.5 62.5z" />
<glyph unicode="&#x202f;" horiz-adv-x="418" />
<glyph unicode="&#x2039;" horiz-adv-x="640" d="M106 517v27l268 378h135l-277 -391l277 -392h-135z" />
<glyph unicode="&#x203a;" horiz-adv-x="640" d="M133 139l276 392l-276 391h135l268 -378v-27l-268 -378h-135z" />
<glyph unicode="&#x205f;" horiz-adv-x="523" />
<glyph unicode="&#x20ac;" horiz-adv-x="1621" d="M95 544v110h177q-4 58 -4 93q0 53 6 102h-179v111h199q66 268 278.5 418t478.5 150q241 0 435 -103v-133q-177 112 -414 112q-221 0 -398.5 -116t-242.5 -328h793v-111h-815q-8 -44 -8 -102q0 -35 4 -93h819v-110h-793q61 -215 243 -330t403 -115q232 0 409 114v-131 q-194 -106 -435 -107q-264 0 -479.5 149.5t-279.5 419.5h-197z" />
<glyph unicode="&#x2122;" horiz-adv-x="1467" d="M99 1475v74h469v-74h-194v-487h-80v487h-195zM677 988v561h89l218 -315l221 315h89v-561h-78v449l-209 -298h-45l-208 298v-449h-77z" />
<glyph unicode="&#x25fc;" horiz-adv-x="1061" d="M0 0v1062h1062v-1062h-1062z" />
<glyph unicode="&#xfb01;" horiz-adv-x="1213" d="M51 944v118h192v150q0 173 110.5 266.5t283.5 93.5q167 0 332 -86v-125q-167 97 -325 97q-127 0 -202 -63t-75 -183v-150h668v-1062h-126v944h-542v-944h-124v944h-192z" />
<glyph unicode="&#xfb02;" horiz-adv-x="1235" d="M51 944v118h192v150q0 173 110.5 266.5t283.5 93.5q155 0 294 -63v11l126 33v-1553h-126v1391q-133 66 -287 67q-127 0 -202 -63t-75 -183v-150h374v-118h-374v-944h-124v944h-192z" />
<glyph unicode="&#xfb03;" horiz-adv-x="1899" d="M51 944v118h192v122q0 172 112 266t289 94q175 0 350 -104q101 148 329 148q166 0 332 -86v-126q-162 95 -326 95q-126 0 -201 -63t-75 -188v-158h667v-1062h-125v944h-542v-944h-124v944h-562v-944h-124v944h-192zM367 1062h560v158q0 62 17 120q-133 87 -294 87 q-131 0 -207 -61.5t-76 -181.5v-122z" />
<glyph unicode="&#xfb04;" horiz-adv-x="1921" d="M51 944v118h192v122q0 172 112 266t289 94q175 0 350 -104q105 148 329 148q154 0 294 -64v9l126 33v-1566h-126v1407q-135 64 -288 64q-126 0 -201 -64.5t-75 -194.5v-150h374v-118h-374v-944h-124v944h-562v-944h-124v944h-192zM367 1062h560v150q0 71 20 128 q-133 87 -297 87q-131 0 -207 -62.5t-76 -180.5v-122z" />
</font>
</defs>
</svg>
